<svg version="1.1" xmlns="http://www.w3.org/2000/svg" width="129.36203"
     height="156.46441" viewBox="0,0,129.36203,156.46441">
    <g transform="translate(-175.31898,-129.60693)">
        <g data-paper-data="{&quot;isPaintingLayer&quot;:true}" stroke-linejoin="miter" stroke-miterlimit="10"
           stroke-dasharray="" stroke-dashoffset="0" style="mix-blend-mode: normal">
            <path d="M177.31916,135.92916c-0.02283,-2.22749 2.2102,-4.30964 4.43305,-4.32223c3.90328,-0.02211 102.05215,-0.00678 116.71738,-0.00155c2.00542,0.00045 4.21143,2.24023 4.21143,4.54543c0,4.22795 0,136.13589 0,143.5983c0,1.95182 -2.11347,4.32223 -4.43305,4.32223c-7.95247,0 -102.68437,0 -116.71742,0c-2.04897,0 -4.19343,-2.32752 -4.18734,-4.54278c0,0 0.06264,-135.14251 -0.02405,-143.5994z"
                  fill="#65d1ff" fill-rule="nonzero" stroke="#e6e6e6" stroke-width="0" stroke-linecap="butt"/>
            <path d="M276.18103,138.57128c54.95283,-27.47642 -45.67003,35.81578 -14,45.5c11.46558,3.506 26.42138,-2.74024 40.10345,-10.80659c0.5276,-0.31105 0.73119,25.19765 0.04872,25.85899c-21.37665,20.71477 -49.57811,42.08136 -80.15217,57.4476c-53.09274,26.68392 51.35658,-41.92505 18,-51c-16.73834,-4.55381 -42.73056,11.83024 -62.26809,25.17882c-0.13772,0.0941 -0.80256,-22.55563 -0.49827,-22.86761c24.03093,-24.6384 60.06725,-49.96166 98.76636,-69.31121z"
                  fill="#7fd9ff" fill-rule="nonzero" stroke="#000000" stroke-width="0" stroke-linecap="round"/>
            <path d="M232.18103,284.07132c0,0 28.94623,-12.07815 41.504,-20.772c13.38892,-9.26925 29.496,-33.39467 29.496,-33.39467c0,0 0.8371,42.77551 -0.90124,51.10394c-0.62145,2.9774 -3.26543,3.06272 -3.26543,3.06272z"
                  fill="#7fd9ff" fill-rule="nonzero" stroke="#000000" stroke-width="0" stroke-linecap="round"/>
            <path d="M277.93103,167.57128c3.76929,-6.28215 13.47436,-17.66762 25.07273,-21.26555c0.60764,-0.18849 0.62536,12.00942 -0.51837,12.84023c-1.24453,0.90404 -2.45748,1.73063 -3.55436,2.42532c-8.15272,5.16339 -25.29237,13.15395 -21,6z"
                  fill="#7fd9ff" fill-rule="nonzero" stroke="#000000" stroke-width="0" stroke-linecap="round"/>
            <path d="M177.43103,157.07133c0,0 10.80317,-11.38229 23.29133,-18.26553c12.48816,-6.88324 42.30055,-10.22692 40.20867,-7.23447c-1.86238,2.66415 -18.63246,8.53979 -31.85741,18.40602c-13.22495,9.86623 -31.14259,28.59397 -31.14259,28.59397z"
                  fill="#7fd9ff" fill-rule="nonzero" stroke="none" stroke-width="0" stroke-linecap="round"/>
            <path d="M262.93103,223.07133c-13.89894,-1.1912 -21.60769,2.67466 -34.5,9.5c-12.89231,6.82534 -19.23483,20.15755 -28,23.33334c-8.76517,3.17578 -8.92968,0.43164 -14.5,2.16666c-3.3666,1.04861 -5.62494,3.59554 -8.68978,5.98268c-0.40657,0.31667 0.09473,-14.52049 0.28764,-14.54819c4.22028,-0.60595 6.31779,-3.52068 10.40214,-4.93449c4.70842,-1.62984 8.1168,-1.57787 13.5,-5.16666c5.3832,-3.5888 16.11109,-18.83996 21.5,-21.33334c3.4952,-1.61719 11.89846,-4.91849 20.04336,-5.73283c4.41291,-0.44121 8.98548,1.49601 12.12331,1.06617"
                  fill="#c266ff" fill-rule="nonzero" stroke="#000000" stroke-width="0" stroke-linecap="round"/>
            <path d="M177.31916,135.92916c-0.02283,-2.22749 2.2102,-4.30964 4.43305,-4.32223c3.90328,-0.02211 102.05215,-0.00678 116.71738,-0.00155c2.00542,0.00045 4.21143,2.24023 4.21143,4.54543c0,4.22795 0,136.13589 0,143.5983c0,1.95182 -2.11347,4.32223 -4.43305,4.32223c-7.95247,0 -102.68437,0 -116.71742,0c-2.04897,0 -4.19343,-2.32752 -4.18734,-4.54278c0,0 0.06264,-135.14251 -0.02405,-143.5994z"
                  fill="none" fill-rule="nonzero" stroke="#e6e6e6" stroke-width="3" stroke-linecap="butt"/>
            <g stroke-linecap="butt">
                <path d="M288.3284,194.50242c-2.155,4.43803 -5.34924,9.55702 -8.3635,13.35056c-2.52389,3.19482 -4.5484,5.06874 -6.48296,5.98284c-0.22494,0.14169 -0.44538,0.18736 -0.71982,0.18736c-0.17997,0 -0.35992,-0.04567 -0.58488,-0.14166c-0.40491,-0.13252 -0.7648,-0.45249 -0.94477,-0.86384c-0.53989,-1.23861 -1.3047,-2.28526 -2.33495,-3.11252c-1.03926,-0.77699 -2.20896,-1.37118 -3.55413,-1.6911c-0.40939,-0.09143 -0.8143,-0.36105 -1.03926,-0.77698c-0.22494,-0.36564 -0.31044,-0.82271 -0.22494,-1.27519c0.53989,-2.10246 1.93456,-4.57053 4.36395,-7.6328c4.77337,-6.12908 14.31108,-15.21993 18.94049,-15.72727c1.2597,-0.18283 1.97952,0.22853 2.42941,0.59417c1.17424,1.00553 2.34395,3.20396 -1.48463,11.10646zM271.70894,215.44018c0.26993,2.28528 -0.31495,4.52486 -1.71411,6.30736c-1.21018,1.59512 -2.91979,2.69662 -4.85432,3.15369c-0.08999,0.04572 -0.22494,0.09142 -0.31493,0.09142l-0.45437,0.04572c-0.85028,0.13715 -1.66012,0.22853 -2.47441,0.22853c-6.47397,0 -11.02237,-4.39227 -12.81743,-7.26716c-0.67932,-1.14264 -1.70961,-3.24509 -0.8098,-4.57058c0.22494,-0.31992 0.85028,-1.0055 2.19997,-0.73129c4.274,0.91411 5.80362,-1.00553 6.07803,-1.37117c2.87932,-3.79358 8.23304,-4.47914 11.91767,-1.64542c1.80406,1.41684 2.9693,3.47361 3.24371,5.75888z"
                      data-paper-data="{&quot;index&quot;:null}" fill="#626262" fill-rule="evenodd" stroke="#7fd9ff"
                      stroke-width="3"/>
                <path d="M271.60475,215.44018c0.26993,2.28528 -0.31495,4.52486 -1.71411,6.30736c-1.21018,1.59512 -2.91979,2.69662 -4.85432,3.15369c-0.08999,0.04572 -0.22493,0.09142 -0.31492,0.09142l-0.45438,0.04572c-0.85028,0.13715 -1.66012,0.22853 -2.47441,0.22853c-6.47397,0 -11.02237,-4.39227 -12.81743,-7.26716c-0.67932,-1.14264 -1.7096,-3.24509 -0.80981,-4.57058c0.22494,-0.31992 0.85029,-1.0055 2.19997,-0.73129c4.274,0.91411 5.80362,-1.00553 6.07803,-1.37117c2.87932,-3.79358 8.23304,-4.47914 11.91767,-1.64542c1.80406,1.41684 2.9693,3.47361 3.24371,5.75888z"
                      data-paper-data="{&quot;index&quot;:null}" fill="#95724a" fill-rule="evenodd" stroke="none"
                      stroke-width="1"/>
                <path d="M260.03695,225.15767c-5.54052,-0.69465 -9.43365,-4.55042 -11.06178,-7.15794c-0.67932,-1.14264 -1.7096,-3.24509 -0.80981,-4.57058c0.22494,-0.31992 0.85029,-1.00549 2.19997,-0.73128c4.274,0.91411 5.80362,-1.00553 6.07803,-1.37117c0.42682,-0.56234 0.88741,2.6224 0.88741,2.6224l1.80885,1.58118l-0.18667,3.19171l2.58377,2.7954c0,0 -0.93166,3.71151 -1.49977,3.64027z"
                      data-paper-data="{&quot;index&quot;:null}" fill="#c266ff" fill-rule="evenodd" stroke="none"
                      stroke-width="1"/>
                <g fill="#626262" fill-rule="nonzero" stroke="#7fd9ff" stroke-width="1.5">
                    <path d="M283.47376,198.10307c0,2.69495 -1.91494,4.94267 -4.45835,5.45665c-0.01484,0.003 0.00412,2.08939 0.00412,2.08939l-2.22625,0.00042c0,0 -0.00086,-2.09094 -0.00187,-2.09114c-2.54014,-0.51654 -4.45177,-2.76269 -4.45177,-5.45533c0,-3.0746 2.49245,-5.56706 5.56706,-5.56706c3.07461,0 5.56707,2.49246 5.56707,5.56706zM277.9067,195.31953c-1.5373,0 -2.78352,1.24623 -2.78352,2.78353c0,1.5373 1.24622,2.78354 2.78352,2.78354c1.5373,0 2.78354,-1.24624 2.78354,-2.78354c0,-1.5373 -1.24624,-2.78353 -2.78354,-2.78353z"/>
                    <path d="M274.788,202.71061c-0.01258,-0.00845 -1.48269,1.47213 -1.48269,1.47213l-1.56572,-1.58262c0,0 1.48609,-1.4709 1.48552,-1.47176c-1.41888,-2.16931 3.7168,3.02926 1.56289,1.58226z"/>
                    <path d="M272.46595,199.19957c-0.00293,-0.01486 -2.08938,-0.00748 -2.08938,-0.00748l0.01194,-2.22621c0,0 2.09091,0.01075 2.09112,0.00974c0.53064,-2.53724 0.48617,4.77019 -0.01368,2.22396z"/>
                    <path d="M276.81715,192.63752c0.01484,-0.003 -0.00412,-2.08938 -0.00412,-2.08938l2.22625,-0.00043c0,0 0.00086,2.09095 0.00187,2.09115c2.54014,0.51654 -4.76741,0.51265 -2.224,-0.00134z"
                          data-paper-data="{&quot;index&quot;:null}"/>
                    <path d="M281.04456,193.48667c0.01258,0.00845 1.4827,-1.47212 1.4827,-1.47212l1.56572,1.58263c0,0 -1.48609,1.47089 -1.48553,1.47174c1.41888,2.16931 -3.03653,-2.57225 -1.56289,-1.58225z"
                          data-paper-data="{&quot;index&quot;:null}"/>
                    <path d="M283.42846,196.99772c0.00293,0.01486 2.08938,0.00748 2.08938,0.00748l-0.01195,2.22621c0,0 -2.09091,-0.01074 -2.09112,-0.00973c-0.53064,2.53724 -0.48617,-4.7702 0.01368,-2.22397z"
                          data-paper-data="{&quot;index&quot;:null}"/>
                    <path d="M273.21554,195.07334c0.00056,-0.00086 -1.48553,-1.47174 -1.48553,-1.47174l1.56573,-1.58262c0,0 1.47013,1.48058 1.4827,1.47213c2.15391,-1.447 -2.98176,3.75156 -1.56289,1.58225z"
                          data-paper-data="{&quot;index&quot;:null}"/>
                    <path d="M282.59787,201.13278c-0.00056,0.00086 1.48554,1.47176 1.48554,1.47176l-1.56574,1.58262c0,0 -1.47013,-1.48057 -1.48269,-1.47212c-2.15391,1.447 2.98176,-3.75157 1.56289,-1.58226z"
                          data-paper-data="{&quot;index&quot;:null}"/>
                </g>
                <g fill="#626262" fill-rule="nonzero" stroke="#65d1ff" stroke-width="0">
                    <path d="M283.47376,198.10307c0,2.69495 -1.91494,4.94267 -4.45835,5.45665c-0.01484,0.003 0.00412,2.08939 0.00412,2.08939l-2.22625,0.00042c0,0 -0.00086,-2.09094 -0.00187,-2.09114c-2.54014,-0.51654 -4.45177,-2.76269 -4.45177,-5.45533c0,-3.0746 2.49245,-5.56706 5.56706,-5.56706c3.07461,0 5.56707,2.49246 5.56707,5.56706zM277.9067,195.31953c-1.5373,0 -2.78352,1.24623 -2.78352,2.78353c0,1.5373 1.24622,2.78354 2.78352,2.78354c1.5373,0 2.78354,-1.24624 2.78354,-2.78354c0,-1.5373 -1.24624,-2.78353 -2.78354,-2.78353z"/>
                    <path d="M274.788,202.71061c-0.01258,-0.00845 -1.48269,1.47213 -1.48269,1.47213l-1.56572,-1.58262c0,0 1.48609,-1.4709 1.48552,-1.47176c-1.41888,-2.16931 3.7168,3.02926 1.56289,1.58226z"/>
                    <path d="M272.46595,199.19957c-0.00293,-0.01486 -2.08938,-0.00748 -2.08938,-0.00748l0.01194,-2.22621c0,0 2.09091,0.01075 2.09112,0.00974c0.53064,-2.53724 0.48617,4.77019 -0.01368,2.22396z"/>
                    <path d="M276.81715,192.63752c0.01484,-0.003 -0.00412,-2.08938 -0.00412,-2.08938l2.22625,-0.00043c0,0 0.00086,2.09095 0.00187,2.09115c2.54014,0.51654 -4.76741,0.51265 -2.224,-0.00134z"
                          data-paper-data="{&quot;index&quot;:null}"/>
                    <path d="M281.04456,193.48667c0.01258,0.00845 1.4827,-1.47212 1.4827,-1.47212l1.56572,1.58263c0,0 -1.48609,1.47089 -1.48553,1.47174c1.41888,2.16931 -3.03653,-2.57225 -1.56289,-1.58225z"
                          data-paper-data="{&quot;index&quot;:null}"/>
                    <path d="M283.42846,196.99772c0.00293,0.01486 2.08938,0.00748 2.08938,0.00748l-0.01195,2.22621c0,0 -2.09091,-0.01074 -2.09112,-0.00973c-0.53064,2.53724 -0.48617,-4.7702 0.01368,-2.22397z"
                          data-paper-data="{&quot;index&quot;:null}"/>
                    <path d="M273.21554,195.07334c0.00056,-0.00086 -1.48553,-1.47174 -1.48553,-1.47174l1.56573,-1.58262c0,0 1.47013,1.48058 1.4827,1.47213c2.15391,-1.447 -2.98176,3.75156 -1.56289,1.58225z"
                          data-paper-data="{&quot;index&quot;:null}"/>
                    <path d="M282.59787,201.13278c-0.00056,0.00086 1.48554,1.47176 1.48554,1.47176l-1.56574,1.58262c0,0 -1.47013,-1.48057 -1.48269,-1.47212c-2.15391,1.447 2.98176,-3.75157 1.56289,-1.58226z"
                          data-paper-data="{&quot;index&quot;:null}"/>
                </g>
            </g>
        </g>
    </g>
</svg>