<svg version="1.1" xmlns="http://www.w3.org/2000/svg" width="127.36203"
     height="154.46441" viewBox="0,0,127.36203,154.46441">
    <g transform="translate(-176.319,-130.60694)">
        <g data-paper-data="{&quot;isPaintingLayer&quot;:true}" stroke-linecap="butt" stroke-linejoin="miter"
           stroke-miterlimit="10" stroke-dasharray="" stroke-dashoffset="0" style="mix-blend-mode: normal">
            <path d="M177.31917,135.92917c-0.02283,-2.22749 2.2102,-4.30964 4.43305,-4.32223c3.90328,-0.02211 102.05215,-0.00678 116.71738,-0.00155c2.00542,0.00045 4.21143,2.24023 4.21143,4.54543c0,4.22795 0,136.13589 0,143.5983c0,1.95182 -2.11347,4.32223 -4.43305,4.32223c-7.95247,0 -102.68437,0 -116.71742,0c-2.04897,0 -4.19343,-2.32752 -4.18734,-4.54278c0,0 0.06264,-135.14251 -0.02405,-143.5994z"
                  fill="#15bcbd" fill-rule="nonzero" stroke="#e6e6e6" stroke-width="0"/>
            <g fill="#16c8c9" fill-rule="evenodd" stroke="none" stroke-width="1">
                <g>
                    <path d="M254.4337,195.85513l-3.98695,3.99768c-0.23513,0.23585 -0.60023,0.23585 -0.8339,0l-3.98549,-3.99768c-0.37971,-0.38234 -0.10369,-1.01077 0.42352,-1.01077h1.98472l1.1844,-4.70229c0.11684,-0.45412 0.58271,-0.73245 1.0369,-0.61525c0.31983,0.07178 0.55496,0.32081 0.62652,0.61525l1.1844,4.70229h1.94236c0.52429,0 0.80323,0.62843 0.42352,1.01077zM257.5,198.69906v2.41706c0,1.86041 -1.50424,3.38389 -3.35897,3.38389h-8.26599c-1.86934,0 -3.37504,-1.52348 -3.37504,-3.38389v-2.41706c0,-0.61525 0.498,-1.09867 1.09532,-1.09867c0.60023,0 1.09531,0.48341 1.09531,1.09867v2.41706c0,0.64455 0.52721,1.18656 1.1844,1.18656h8.26599c0.64259,0 1.16834,-0.54201 1.16834,-1.18656v-2.41706c0,-0.61525 0.49654,-1.09867 1.09531,-1.09867c0.61338,0 1.09532,0.48341 1.09532,1.09867z"/>
                    <path d="M254.4337,215.85513l-3.98695,3.99768c-0.23513,0.23585 -0.60023,0.23585 -0.8339,0l-3.98549,-3.99768c-0.37971,-0.38234 -0.10369,-1.01077 0.42352,-1.01077h1.98472l1.1844,-4.70229c0.11684,-0.45412 0.58271,-0.73245 1.0369,-0.61525c0.31983,0.07178 0.55496,0.32081 0.62652,0.61525l1.1844,4.70229h1.94236c0.52429,0 0.80323,0.62843 0.42352,1.01077zM257.5,218.69906v2.41706c0,1.86041 -1.50424,3.38389 -3.35897,3.38389h-8.26599c-1.86934,0 -3.37504,-1.52348 -3.37504,-3.38389v-2.41706c0,-0.61525 0.498,-1.09867 1.09532,-1.09867c0.60023,0 1.09531,0.48341 1.09531,1.09867v2.41706c0,0.64455 0.52721,1.18656 1.1844,1.18656h8.26599c0.64259,0 1.16834,-0.54201 1.16834,-1.18656v-2.41706c0,-0.61525 0.49654,-1.09867 1.09531,-1.09867c0.61338,0 1.09532,0.48341 1.09532,1.09867z"/>
                    <path d="M254.4337,235.85513l-3.98695,3.99768c-0.23513,0.23585 -0.60023,0.23585 -0.8339,0l-3.98549,-3.99768c-0.37971,-0.38234 -0.10369,-1.01077 0.42352,-1.01077h1.98472l1.1844,-4.70229c0.11684,-0.45412 0.58271,-0.73245 1.0369,-0.61525c0.31983,0.07178 0.55496,0.32081 0.62652,0.61525l1.1844,4.70229h1.94236c0.52429,0 0.80323,0.62843 0.42352,1.01077zM257.5,238.69906v2.41706c0,1.86041 -1.50424,3.38389 -3.35897,3.38389h-8.26599c-1.86934,0 -3.37504,-1.52348 -3.37504,-3.38389v-2.41706c0,-0.61525 0.498,-1.09867 1.09532,-1.09867c0.60023,0 1.09531,0.48341 1.09531,1.09867v2.41706c0,0.64455 0.52721,1.18656 1.1844,1.18656h8.26599c0.64259,0 1.16834,-0.54201 1.16834,-1.18656v-2.41706c0,-0.61525 0.49654,-1.09867 1.09531,-1.09867c0.61338,0 1.09532,0.48341 1.09532,1.09867z"/>
                    <path d="M254.4337,255.85513l-3.98695,3.99768c-0.23513,0.23585 -0.60023,0.23585 -0.8339,0l-3.98549,-3.99768c-0.37971,-0.38234 -0.10369,-1.01077 0.42352,-1.01077h1.98472l1.1844,-4.70229c0.11684,-0.45412 0.58271,-0.73245 1.0369,-0.61525c0.31983,0.07178 0.55496,0.32081 0.62652,0.61525l1.1844,4.70229h1.94236c0.52429,0 0.80323,0.62843 0.42352,1.01077zM257.5,258.69906v2.41706c0,1.86041 -1.50424,3.38389 -3.35897,3.38389h-8.26599c-1.86934,0 -3.37504,-1.52348 -3.37504,-3.38389v-2.41706c0,-0.61525 0.498,-1.09867 1.09532,-1.09867c0.60023,0 1.09531,0.48341 1.09531,1.09867v2.41706c0,0.64455 0.52721,1.18656 1.1844,1.18656h8.26599c0.64259,0 1.16834,-0.54201 1.16834,-1.18656v-2.41706c0,-0.61525 0.49654,-1.09867 1.09531,-1.09867c0.61338,0 1.09532,0.48341 1.09532,1.09867z"/>
                    <path d="M254.4337,275.85513l-3.98695,3.99768c-0.23513,0.23585 -0.60023,0.23585 -0.8339,0l-3.98549,-3.99768c-0.37971,-0.38234 -0.10369,-1.01077 0.42352,-1.01077h1.98472l1.1844,-4.70229c0.11684,-0.45412 0.58271,-0.73245 1.0369,-0.61525c0.31983,0.07178 0.55496,0.32081 0.62652,0.61525l1.1844,4.70229h1.94236c0.52429,0 0.80323,0.62843 0.42352,1.01077zM257.5,278.69906v2.41706c0,1.86041 -1.50424,3.38389 -3.35897,3.38389h-8.26599c-1.86934,0 -3.37504,-1.52348 -3.37504,-3.38389v-2.41706c0,-0.61525 0.498,-1.09867 1.09532,-1.09867c0.60023,0 1.09531,0.48341 1.09531,1.09867v2.41706c0,0.64455 0.52721,1.18656 1.1844,1.18656h8.26599c0.64259,0 1.16834,-0.54201 1.16834,-1.18656v-2.41706c0,-0.61525 0.49654,-1.09867 1.09531,-1.09867c0.61338,0 1.09532,0.48341 1.09532,1.09867z"/>
                    <path d="M254.4337,135.85512l-3.98695,3.99768c-0.23513,0.23585 -0.60023,0.23585 -0.8339,0l-3.98549,-3.99768c-0.37971,-0.38234 -0.10369,-1.01077 0.42352,-1.01077h1.98472c0,0 0.46572,-1.849 0.6749,-2.67949c0.18175,-0.72158 2.40214,-1.11276 2.55203,-0.51765c0.21846,0.86734 0.80529,3.19714 0.80529,3.19714h1.94236c0.52429,0 0.80323,0.62843 0.42352,1.01077zM257.5,138.69905v2.41706c0,1.86041 -1.50424,3.38389 -3.35897,3.38389h-8.26599c-1.86934,0 -3.37504,-1.52348 -3.37504,-3.38389v-2.41706c0,-0.61525 0.498,-1.09867 1.09532,-1.09867c0.60023,0 1.09531,0.48341 1.09531,1.09867v2.41706c0,0.64455 0.52721,1.18656 1.1844,1.18656h8.26599c0.64259,0 1.16834,-0.54201 1.16834,-1.18656v-2.41706c0,-0.61525 0.49654,-1.09867 1.09531,-1.09867c0.61338,0 1.09532,0.48341 1.09532,1.09867z"/>
                    <path d="M254.4337,155.85512l-3.98695,3.99768c-0.23513,0.23585 -0.60023,0.23585 -0.8339,0l-3.98549,-3.99768c-0.37971,-0.38234 -0.10369,-1.01077 0.42352,-1.01077h1.98472l1.1844,-4.70229c0.11684,-0.45412 0.58271,-0.73245 1.0369,-0.61525c0.31983,0.07178 0.55496,0.32081 0.62652,0.61525l1.1844,4.70229h1.94236c0.52429,0 0.80323,0.62843 0.42352,1.01077zM257.5,158.69905v2.41706c0,1.86041 -1.50424,3.38389 -3.35897,3.38389h-8.26599c-1.86934,0 -3.37504,-1.52348 -3.37504,-3.38389v-2.41706c0,-0.61525 0.498,-1.09867 1.09532,-1.09867c0.60023,0 1.09531,0.48341 1.09531,1.09867v2.41706c0,0.64455 0.52721,1.18656 1.1844,1.18656h8.26599c0.64259,0 1.16834,-0.54201 1.16834,-1.18656v-2.41706c0,-0.61525 0.49654,-1.09867 1.09531,-1.09867c0.61338,0 1.09532,0.48341 1.09532,1.09867z"/>
                    <path d="M254.4337,175.85513l-3.98695,3.99768c-0.23513,0.23585 -0.60023,0.23585 -0.8339,0l-3.98549,-3.99768c-0.37971,-0.38234 -0.10369,-1.01077 0.42352,-1.01077h1.98472l1.1844,-4.70229c0.11684,-0.45412 0.58271,-0.73245 1.0369,-0.61525c0.31983,0.07178 0.55496,0.32081 0.62652,0.61525l1.1844,4.70229h1.94236c0.52429,0 0.80323,0.62843 0.42352,1.01077zM257.5,178.69906v2.41706c0,1.86041 -1.50424,3.38389 -3.35897,3.38389h-8.26599c-1.86934,0 -3.37504,-1.52348 -3.37504,-3.38389v-2.41706c0,-0.61525 0.498,-1.09867 1.09532,-1.09867c0.60023,0 1.09531,0.48341 1.09531,1.09867v2.41706c0,0.64455 0.52721,1.18656 1.1844,1.18656h8.26599c0.64259,0 1.16834,-0.54201 1.16834,-1.18656v-2.41706c0,-0.61525 0.49654,-1.09867 1.09531,-1.09867c0.61338,0 1.09532,0.48341 1.09532,1.09867z"/>
                </g>
                <g>
                    <path d="M274.4337,200.85513l-3.98695,3.99768c-0.23513,0.23585 -0.60023,0.23585 -0.8339,0l-3.98549,-3.99768c-0.37971,-0.38234 -0.10369,-1.01077 0.42352,-1.01077h1.98472l1.1844,-4.70229c0.11684,-0.45412 0.58271,-0.73245 1.0369,-0.61525c0.31983,0.07178 0.55496,0.32081 0.62652,0.61525l1.1844,4.70229h1.94236c0.52429,0 0.80323,0.62843 0.42352,1.01077zM277.5,203.69906v2.41706c0,1.86041 -1.50424,3.38389 -3.35897,3.38389h-8.26599c-1.86934,0 -3.37504,-1.52348 -3.37504,-3.38389v-2.41706c0,-0.61525 0.498,-1.09867 1.09532,-1.09867c0.60023,0 1.09531,0.48341 1.09531,1.09867v2.41706c0,0.64455 0.52721,1.18656 1.1844,1.18656h8.26599c0.64259,0 1.16834,-0.54201 1.16834,-1.18656v-2.41706c0,-0.61525 0.49654,-1.09867 1.09531,-1.09867c0.61338,0 1.09532,0.48341 1.09532,1.09867z"/>
                    <path d="M274.4337,220.85513l-3.98695,3.99768c-0.23513,0.23585 -0.60023,0.23585 -0.8339,0l-3.98549,-3.99768c-0.37971,-0.38234 -0.10369,-1.01077 0.42352,-1.01077h1.98472l1.1844,-4.70229c0.11684,-0.45412 0.58271,-0.73245 1.0369,-0.61525c0.31983,0.07178 0.55496,0.32081 0.62652,0.61525l1.1844,4.70229h1.94236c0.52429,0 0.80323,0.62843 0.42352,1.01077zM277.5,223.69906v2.41706c0,1.86041 -1.50424,3.38389 -3.35897,3.38389h-8.26599c-1.86934,0 -3.37504,-1.52348 -3.37504,-3.38389v-2.41706c0,-0.61525 0.498,-1.09867 1.09532,-1.09867c0.60023,0 1.09531,0.48341 1.09531,1.09867v2.41706c0,0.64455 0.52721,1.18656 1.1844,1.18656h8.26599c0.64259,0 1.16834,-0.54201 1.16834,-1.18656v-2.41706c0,-0.61525 0.49654,-1.09867 1.09531,-1.09867c0.61338,0 1.09532,0.48341 1.09532,1.09867z"/>
                    <path d="M274.4337,240.85513l-3.98695,3.99768c-0.23513,0.23585 -0.60023,0.23585 -0.8339,0l-3.98549,-3.99768c-0.37971,-0.38234 -0.10369,-1.01077 0.42352,-1.01077h1.98472l1.1844,-4.70229c0.11684,-0.45412 0.58271,-0.73245 1.0369,-0.61525c0.31983,0.07178 0.55496,0.32081 0.62652,0.61525l1.1844,4.70229h1.94236c0.52429,0 0.80323,0.62843 0.42352,1.01077zM277.5,243.69906v2.41706c0,1.86041 -1.50424,3.38389 -3.35897,3.38389h-8.26599c-1.86934,0 -3.37504,-1.52348 -3.37504,-3.38389v-2.41706c0,-0.61525 0.498,-1.09867 1.09532,-1.09867c0.60023,0 1.09531,0.48341 1.09531,1.09867v2.41706c0,0.64455 0.52721,1.18656 1.1844,1.18656h8.26599c0.64259,0 1.16834,-0.54201 1.16834,-1.18656v-2.41706c0,-0.61525 0.49654,-1.09867 1.09531,-1.09867c0.61338,0 1.09532,0.48341 1.09532,1.09867z"/>
                    <path d="M274.4337,260.85513l-3.98695,3.99768c-0.23513,0.23585 -0.60023,0.23585 -0.8339,0l-3.98549,-3.99768c-0.37971,-0.38234 -0.10369,-1.01077 0.42352,-1.01077h1.98472l1.1844,-4.70229c0.11684,-0.45412 0.58271,-0.73245 1.0369,-0.61525c0.31983,0.07178 0.55496,0.32081 0.62652,0.61525l1.1844,4.70229h1.94236c0.52429,0 0.80323,0.62843 0.42352,1.01077zM277.5,263.69906v2.41706c0,1.86041 -1.50424,3.38389 -3.35897,3.38389h-8.26599c-1.86934,0 -3.37504,-1.52348 -3.37504,-3.38389v-2.41706c0,-0.61525 0.498,-1.09867 1.09532,-1.09867c0.60023,0 1.09531,0.48341 1.09531,1.09867v2.41706c0,0.64455 0.52721,1.18656 1.1844,1.18656h8.26599c0.64259,0 1.16834,-0.54201 1.16834,-1.18656v-2.41706c0,-0.61525 0.49654,-1.09867 1.09531,-1.09867c0.61338,0 1.09532,0.48341 1.09532,1.09867z"/>
                    <path d="M274.4337,280.85513l-3.98695,3.99768c-0.23513,0.23585 -0.60023,0.23585 -0.8339,0l-3.98549,-3.99768c-0.37971,-0.38234 -0.10369,-1.01077 0.42352,-1.01077h1.98472l1.1844,-4.70229c0.11684,-0.45412 0.58271,-0.73245 1.0369,-0.61525c0.31983,0.07178 0.55496,0.32081 0.62652,0.61525l1.1844,4.70229h1.94236c0.52429,0 0.80323,0.62843 0.42352,1.01077zM277.5,283.69906h-15c0,-0.61525 0.498,-1.09867 1.09532,-1.09867c0.60023,0 1.09531,0.48341 1.09531,1.09867h10.61873c0,-0.61525 0.49654,-1.09867 1.09531,-1.09867c0.61338,0 1.09532,0.48341 1.09532,1.09867z"/>
                    <path d="M274.4337,140.85512l-3.98695,3.99768c-0.23513,0.23585 -0.60023,0.23585 -0.8339,0l-3.98549,-3.99768c-0.37971,-0.38234 -0.10369,-1.01077 0.42352,-1.01077h1.98472l1.1844,-4.70229c0.11684,-0.45412 0.58271,-0.73245 1.0369,-0.61525c0.31983,0.07178 0.55496,0.32081 0.62652,0.61525l1.1844,4.70229h1.94236c0.52429,0 0.80323,0.62843 0.42352,1.01077zM277.5,143.69905v2.41706c0,1.86041 -1.50424,3.38389 -3.35897,3.38389h-8.26599c-1.86934,0 -3.37504,-1.52348 -3.37504,-3.38389v-2.41706c0,-0.61525 0.498,-1.09867 1.09532,-1.09867c0.60023,0 1.09531,0.48341 1.09531,1.09867v2.41706c0,0.64455 0.52721,1.18656 1.1844,1.18656h8.26599c0.64259,0 1.16834,-0.54201 1.16834,-1.18656v-2.41706c0,-0.61525 0.49654,-1.09867 1.09531,-1.09867c0.61338,0 1.09532,0.48341 1.09532,1.09867z"/>
                    <path d="M274.4337,160.85512l-3.98695,3.99768c-0.23513,0.23585 -0.60023,0.23585 -0.8339,0l-3.98549,-3.99768c-0.37971,-0.38234 -0.10369,-1.01077 0.42352,-1.01077h1.98472l1.1844,-4.70229c0.11684,-0.45412 0.58271,-0.73245 1.0369,-0.61525c0.31983,0.07178 0.55496,0.32081 0.62652,0.61525l1.1844,4.70229h1.94236c0.52429,0 0.80323,0.62843 0.42352,1.01077zM277.5,163.69905v2.41706c0,1.86041 -1.50424,3.38389 -3.35897,3.38389h-8.26599c-1.86934,0 -3.37504,-1.52348 -3.37504,-3.38389v-2.41706c0,-0.61525 0.498,-1.09867 1.09532,-1.09867c0.60023,0 1.09531,0.48341 1.09531,1.09867v2.41706c0,0.64455 0.52721,1.18656 1.1844,1.18656h8.26599c0.64259,0 1.16834,-0.54201 1.16834,-1.18656v-2.41706c0,-0.61525 0.49654,-1.09867 1.09531,-1.09867c0.61338,0 1.09532,0.48341 1.09532,1.09867z"/>
                    <path d="M274.4337,180.85513l-3.98695,3.99768c-0.23513,0.23585 -0.60023,0.23585 -0.8339,0l-3.98549,-3.99768c-0.37971,-0.38234 -0.10369,-1.01077 0.42352,-1.01077h1.98472l1.1844,-4.70229c0.11684,-0.45412 0.58271,-0.73245 1.0369,-0.61525c0.31983,0.07178 0.55496,0.32081 0.62652,0.61525l1.1844,4.70229h1.94236c0.52429,0 0.80323,0.62843 0.42352,1.01077zM277.5,183.69906v2.41706c0,1.86041 -1.50424,3.38389 -3.35897,3.38389h-8.26599c-1.86934,0 -3.37504,-1.52348 -3.37504,-3.38389v-2.41706c0,-0.61525 0.498,-1.09867 1.09532,-1.09867c0.60023,0 1.09531,0.48341 1.09531,1.09867v2.41706c0,0.64455 0.52721,1.18656 1.1844,1.18656h8.26599c0.64259,0 1.16834,-0.54201 1.16834,-1.18656v-2.41706c0,-0.61525 0.49654,-1.09867 1.09531,-1.09867c0.61338,0 1.09532,0.48341 1.09532,1.09867z"/>
                </g>
                <g>
                    <path d="M294.4337,195.85513l-3.98695,3.99768c-0.23513,0.23585 -0.60023,0.23585 -0.8339,0l-3.98549,-3.99768c-0.37971,-0.38234 -0.10369,-1.01077 0.42352,-1.01077h1.98472l1.1844,-4.70229c0.11684,-0.45412 0.58271,-0.73245 1.0369,-0.61525c0.31983,0.07178 0.55496,0.32081 0.62652,0.61525l1.1844,4.70229h1.94236c0.52429,0 0.80323,0.62843 0.42352,1.01077zM297.5,198.69906v2.41706c0,1.86041 -1.50424,3.38389 -3.35897,3.38389h-8.26599c-1.86934,0 -3.37504,-1.52348 -3.37504,-3.38389v-2.41706c0,-0.61525 0.498,-1.09867 1.09532,-1.09867c0.60023,0 1.09531,0.48341 1.09531,1.09867v2.41706c0,0.64455 0.52721,1.18656 1.1844,1.18656h8.26599c0.64259,0 1.16834,-0.54201 1.16834,-1.18656v-2.41706c0,-0.61525 0.49654,-1.09867 1.09531,-1.09867c0.61338,0 1.09532,0.48341 1.09532,1.09867z"/>
                    <path d="M294.4337,215.85513l-3.98695,3.99768c-0.23513,0.23585 -0.60023,0.23585 -0.8339,0l-3.98549,-3.99768c-0.37971,-0.38234 -0.10369,-1.01077 0.42352,-1.01077h1.98472l1.1844,-4.70229c0.11684,-0.45412 0.58271,-0.73245 1.0369,-0.61525c0.31983,0.07178 0.55496,0.32081 0.62652,0.61525l1.1844,4.70229h1.94236c0.52429,0 0.80323,0.62843 0.42352,1.01077zM297.5,218.69906v2.41706c0,1.86041 -1.50424,3.38389 -3.35897,3.38389h-8.26599c-1.86934,0 -3.37504,-1.52348 -3.37504,-3.38389v-2.41706c0,-0.61525 0.498,-1.09867 1.09532,-1.09867c0.60023,0 1.09531,0.48341 1.09531,1.09867v2.41706c0,0.64455 0.52721,1.18656 1.1844,1.18656h8.26599c0.64259,0 1.16834,-0.54201 1.16834,-1.18656v-2.41706c0,-0.61525 0.49654,-1.09867 1.09531,-1.09867c0.61338,0 1.09532,0.48341 1.09532,1.09867z"/>
                    <path d="M294.4337,235.85513l-3.98695,3.99768c-0.23513,0.23585 -0.60023,0.23585 -0.8339,0l-3.98549,-3.99768c-0.37971,-0.38234 -0.10369,-1.01077 0.42352,-1.01077h1.98472l1.1844,-4.70229c0.11684,-0.45412 0.58271,-0.73245 1.0369,-0.61525c0.31983,0.07178 0.55496,0.32081 0.62652,0.61525l1.1844,4.70229h1.94236c0.52429,0 0.80323,0.62843 0.42352,1.01077zM297.5,238.69906v2.41706c0,1.86041 -1.50424,3.38389 -3.35897,3.38389h-8.26599c-1.86934,0 -3.37504,-1.52348 -3.37504,-3.38389v-2.41706c0,-0.61525 0.498,-1.09867 1.09532,-1.09867c0.60023,0 1.09531,0.48341 1.09531,1.09867v2.41706c0,0.64455 0.52721,1.18656 1.1844,1.18656h8.26599c0.64259,0 1.16834,-0.54201 1.16834,-1.18656v-2.41706c0,-0.61525 0.49654,-1.09867 1.09531,-1.09867c0.61338,0 1.09532,0.48341 1.09532,1.09867z"/>
                    <path d="M294.4337,255.85513l-3.98695,3.99768c-0.23513,0.23585 -0.60023,0.23585 -0.8339,0l-3.98549,-3.99768c-0.37971,-0.38234 -0.10369,-1.01077 0.42352,-1.01077h1.98472l1.1844,-4.70229c0.11684,-0.45412 0.58271,-0.73245 1.0369,-0.61525c0.31983,0.07178 0.55496,0.32081 0.62652,0.61525l1.1844,4.70229h1.94236c0.52429,0 0.80323,0.62843 0.42352,1.01077zM297.5,258.69906v2.41706c0,1.86041 -1.50424,3.38389 -3.35897,3.38389h-8.26599c-1.86934,0 -3.37504,-1.52348 -3.37504,-3.38389v-2.41706c0,-0.61525 0.498,-1.09867 1.09532,-1.09867c0.60023,0 1.09531,0.48341 1.09531,1.09867v2.41706c0,0.64455 0.52721,1.18656 1.1844,1.18656h8.26599c0.64259,0 1.16834,-0.54201 1.16834,-1.18656v-2.41706c0,-0.61525 0.49654,-1.09867 1.09531,-1.09867c0.61338,0 1.09532,0.48341 1.09532,1.09867z"/>
                    <path d="M294.4337,275.85513l-3.98695,3.99768c-0.23513,0.23585 -0.60023,0.23585 -0.8339,0l-3.98549,-3.99768c-0.37971,-0.38234 -0.10369,-1.01077 0.42352,-1.01077h1.98472l1.1844,-4.70229c0.11684,-0.45412 0.58271,-0.73245 1.0369,-0.61525c0.31983,0.07178 0.55496,0.32081 0.62652,0.61525l1.1844,4.70229h1.94236c0.52429,0 0.80323,0.62843 0.42352,1.01077zM297.5,278.69906v2.41706c0,1.86041 -1.50424,3.38389 -3.35897,3.38389h-8.26599c-1.86934,0 -3.37504,-1.52348 -3.37504,-3.38389v-2.41706c0,-0.61525 0.498,-1.09867 1.09532,-1.09867c0.60023,0 1.09531,0.48341 1.09531,1.09867v2.41706c0,0.64455 0.52721,1.18656 1.1844,1.18656h8.26599c0.64259,0 1.16834,-0.54201 1.16834,-1.18656v-2.41706c0,-0.61525 0.49654,-1.09867 1.09531,-1.09867c0.61338,0 1.09532,0.48341 1.09532,1.09867z"/>
                    <path d="M294.4337,135.85512l-3.98695,3.99768c-0.23513,0.23585 -0.60023,0.23585 -0.8339,0l-3.98549,-3.99768c-0.37971,-0.38234 -0.10369,-1.01077 0.42352,-1.01077h1.98472c0,0 0.54678,-2.17082 0.76368,-3.03194c0.16099,-0.63916 2.3393,-0.65734 2.4987,-0.0245c0.21722,0.8624 0.76985,3.05644 0.76985,3.05644h1.94236c0.52429,0 0.80323,0.62843 0.42352,1.01077zM297.5,138.69905v2.41706c0,1.86041 -1.50424,3.38389 -3.35897,3.38389h-8.26599c-1.86934,0 -3.37504,-1.52348 -3.37504,-3.38389v-2.41706c0,-0.61525 0.498,-1.09867 1.09532,-1.09867c0.60023,0 1.09531,0.48341 1.09531,1.09867v2.41706c0,0.64455 0.52721,1.18656 1.1844,1.18656h8.26599c0.64259,0 1.16834,-0.54201 1.16834,-1.18656v-2.41706c0,-0.61525 0.49654,-1.09867 1.09531,-1.09867c0.61338,0 1.09532,0.48341 1.09532,1.09867z"/>
                    <path d="M294.4337,155.85512l-3.98695,3.99768c-0.23513,0.23585 -0.60023,0.23585 -0.8339,0l-3.98549,-3.99768c-0.37971,-0.38234 -0.10369,-1.01077 0.42352,-1.01077h1.98472l1.1844,-4.70229c0.11684,-0.45412 0.58271,-0.73245 1.0369,-0.61525c0.31983,0.07178 0.55496,0.32081 0.62652,0.61525l1.1844,4.70229h1.94236c0.52429,0 0.80323,0.62843 0.42352,1.01077zM297.5,158.69905v2.41706c0,1.86041 -1.50424,3.38389 -3.35897,3.38389h-8.26599c-1.86934,0 -3.37504,-1.52348 -3.37504,-3.38389v-2.41706c0,-0.61525 0.498,-1.09867 1.09532,-1.09867c0.60023,0 1.09531,0.48341 1.09531,1.09867v2.41706c0,0.64455 0.52721,1.18656 1.1844,1.18656h8.26599c0.64259,0 1.16834,-0.54201 1.16834,-1.18656v-2.41706c0,-0.61525 0.49654,-1.09867 1.09531,-1.09867c0.61338,0 1.09532,0.48341 1.09532,1.09867z"/>
                    <path d="M294.4337,175.85513l-3.98695,3.99768c-0.23513,0.23585 -0.60023,0.23585 -0.8339,0l-3.98549,-3.99768c-0.37971,-0.38234 -0.10369,-1.01077 0.42352,-1.01077h1.98472l1.1844,-4.70229c0.11684,-0.45412 0.58271,-0.73245 1.0369,-0.61525c0.31983,0.07178 0.55496,0.32081 0.62652,0.61525l1.1844,4.70229h1.94236c0.52429,0 0.80323,0.62843 0.42352,1.01077zM297.5,178.69906v2.41706c0,1.86041 -1.50424,3.38389 -3.35897,3.38389h-8.26599c-1.86934,0 -3.37504,-1.52348 -3.37504,-3.38389v-2.41706c0,-0.61525 0.498,-1.09867 1.09532,-1.09867c0.60023,0 1.09531,0.48341 1.09531,1.09867v2.41706c0,0.64455 0.52721,1.18656 1.1844,1.18656h8.26599c0.64259,0 1.16834,-0.54201 1.16834,-1.18656v-2.41706c0,-0.61525 0.49654,-1.09867 1.09531,-1.09867c0.61338,0 1.09532,0.48341 1.09532,1.09867z"/>
                </g>
                <g>
                    <path d="M194.4337,200.85513l-3.98695,3.99768c-0.23513,0.23585 -0.60023,0.23585 -0.8339,0l-3.98549,-3.99768c-0.37971,-0.38234 -0.10369,-1.01077 0.42352,-1.01077h1.98472l1.1844,-4.70229c0.11684,-0.45412 0.58271,-0.73245 1.0369,-0.61525c0.31983,0.07178 0.55496,0.32081 0.62652,0.61525l1.1844,4.70229h1.94236c0.52429,0 0.80323,0.62843 0.42352,1.01077zM197.5,203.69906v2.41706c0,1.86041 -1.50424,3.38389 -3.35897,3.38389h-8.26599c-1.86934,0 -3.37504,-1.52348 -3.37504,-3.38389v-2.41706c0,-0.61525 0.498,-1.09867 1.09532,-1.09867c0.60023,0 1.09531,0.48341 1.09531,1.09867v2.41706c0,0.64455 0.52721,1.18656 1.1844,1.18656h8.26599c0.64259,0 1.16834,-0.54201 1.16834,-1.18656v-2.41706c0,-0.61525 0.49654,-1.09867 1.09531,-1.09867c0.61338,0 1.09532,0.48341 1.09532,1.09867z"/>
                    <path d="M194.4337,220.85513l-3.98695,3.99768c-0.23513,0.23585 -0.60023,0.23585 -0.8339,0l-3.98549,-3.99768c-0.37971,-0.38234 -0.10369,-1.01077 0.42352,-1.01077h1.98472l1.1844,-4.70229c0.11684,-0.45412 0.58271,-0.73245 1.0369,-0.61525c0.31983,0.07178 0.55496,0.32081 0.62652,0.61525l1.1844,4.70229h1.94236c0.52429,0 0.80323,0.62843 0.42352,1.01077zM197.5,223.69906v2.41706c0,1.86041 -1.50424,3.38389 -3.35897,3.38389h-8.26599c-1.86934,0 -3.37504,-1.52348 -3.37504,-3.38389v-2.41706c0,-0.61525 0.498,-1.09867 1.09532,-1.09867c0.60023,0 1.09531,0.48341 1.09531,1.09867v2.41706c0,0.64455 0.52721,1.18656 1.1844,1.18656h8.26599c0.64259,0 1.16834,-0.54201 1.16834,-1.18656v-2.41706c0,-0.61525 0.49654,-1.09867 1.09531,-1.09867c0.61338,0 1.09532,0.48341 1.09532,1.09867z"/>
                    <path d="M194.4337,240.85513l-3.98695,3.99768c-0.23513,0.23585 -0.60023,0.23585 -0.8339,0l-3.98549,-3.99768c-0.37971,-0.38234 -0.10369,-1.01077 0.42352,-1.01077h1.98472l1.1844,-4.70229c0.11684,-0.45412 0.58271,-0.73245 1.0369,-0.61525c0.31983,0.07178 0.55496,0.32081 0.62652,0.61525l1.1844,4.70229h1.94236c0.52429,0 0.80323,0.62843 0.42352,1.01077zM197.5,243.69906v2.41706c0,1.86041 -1.50424,3.38389 -3.35897,3.38389h-8.26599c-1.86934,0 -3.37504,-1.52348 -3.37504,-3.38389v-2.41706c0,-0.61525 0.498,-1.09867 1.09532,-1.09867c0.60023,0 1.09531,0.48341 1.09531,1.09867v2.41706c0,0.64455 0.52721,1.18656 1.1844,1.18656h8.26599c0.64259,0 1.16834,-0.54201 1.16834,-1.18656v-2.41706c0,-0.61525 0.49654,-1.09867 1.09531,-1.09867c0.61338,0 1.09532,0.48341 1.09532,1.09867z"/>
                    <path d="M194.4337,260.85513l-3.98695,3.99768c-0.23513,0.23585 -0.60023,0.23585 -0.8339,0l-3.98549,-3.99768c-0.37971,-0.38234 -0.10369,-1.01077 0.42352,-1.01077h1.98472l1.1844,-4.70229c0.11684,-0.45412 0.58271,-0.73245 1.0369,-0.61525c0.31983,0.07178 0.55496,0.32081 0.62652,0.61525l1.1844,4.70229h1.94236c0.52429,0 0.80323,0.62843 0.42352,1.01077zM197.5,263.69906v2.41706c0,1.86041 -1.50424,3.38389 -3.35897,3.38389h-8.26599c-1.86934,0 -3.37504,-1.52348 -3.37504,-3.38389v-2.41706c0,-0.61525 0.498,-1.09867 1.09532,-1.09867c0.60023,0 1.09531,0.48341 1.09531,1.09867v2.41706c0,0.64455 0.52721,1.18656 1.1844,1.18656h8.26599c0.64259,0 1.16834,-0.54201 1.16834,-1.18656v-2.41706c0,-0.61525 0.49654,-1.09867 1.09531,-1.09867c0.61338,0 1.09532,0.48341 1.09532,1.09867z"/>
                    <path d="M194.4337,280.85513l-3.98695,3.99768c-0.23513,0.23585 -0.60023,0.23585 -0.8339,0l-3.98549,-3.99768c-0.37971,-0.38234 -0.10369,-1.01077 0.42352,-1.01077h1.98472l1.1844,-4.70229c0.11684,-0.45412 0.58271,-0.73245 1.0369,-0.61525c0.31983,0.07178 0.55496,0.32081 0.62652,0.61525l1.1844,4.70229h1.94236c0.52429,0 0.80323,0.62843 0.42352,1.01077zM197.5,283.69906h-15c0,-0.61525 0.498,-1.09867 1.09532,-1.09867c0.60023,0 1.09531,0.48341 1.09531,1.09867h10.61873c0,-0.61525 0.49654,-1.09867 1.09531,-1.09867c0.61338,0 1.09532,0.48341 1.09532,1.09867z"/>
                    <path d="M194.4337,140.85512l-3.98695,3.99768c-0.23513,0.23585 -0.60023,0.23585 -0.8339,0l-3.98549,-3.99768c-0.37971,-0.38234 -0.10369,-1.01077 0.42352,-1.01077h1.98472l1.1844,-4.70229c0.11684,-0.45412 0.58271,-0.73245 1.0369,-0.61525c0.31983,0.07178 0.55496,0.32081 0.62652,0.61525l1.1844,4.70229h1.94236c0.52429,0 0.80323,0.62843 0.42352,1.01077zM197.5,143.69905v2.41706c0,1.86041 -1.50424,3.38389 -3.35897,3.38389h-8.26599c-1.86934,0 -3.37504,-1.52348 -3.37504,-3.38389v-2.41706c0,-0.61525 0.498,-1.09867 1.09532,-1.09867c0.60023,0 1.09531,0.48341 1.09531,1.09867v2.41706c0,0.64455 0.52721,1.18656 1.1844,1.18656h8.26599c0.64259,0 1.16834,-0.54201 1.16834,-1.18656v-2.41706c0,-0.61525 0.49654,-1.09867 1.09531,-1.09867c0.61338,0 1.09532,0.48341 1.09532,1.09867z"/>
                    <path d="M194.4337,160.85512l-3.98695,3.99768c-0.23513,0.23585 -0.60023,0.23585 -0.8339,0l-3.98549,-3.99768c-0.37971,-0.38234 -0.10369,-1.01077 0.42352,-1.01077h1.98472l1.1844,-4.70229c0.11684,-0.45412 0.58271,-0.73245 1.0369,-0.61525c0.31983,0.07178 0.55496,0.32081 0.62652,0.61525l1.1844,4.70229h1.94236c0.52429,0 0.80323,0.62843 0.42352,1.01077zM197.5,163.69905v2.41706c0,1.86041 -1.50424,3.38389 -3.35897,3.38389h-8.26599c-1.86934,0 -3.37504,-1.52348 -3.37504,-3.38389v-2.41706c0,-0.61525 0.498,-1.09867 1.09532,-1.09867c0.60023,0 1.09531,0.48341 1.09531,1.09867v2.41706c0,0.64455 0.52721,1.18656 1.1844,1.18656h8.26599c0.64259,0 1.16834,-0.54201 1.16834,-1.18656v-2.41706c0,-0.61525 0.49654,-1.09867 1.09531,-1.09867c0.61338,0 1.09532,0.48341 1.09532,1.09867z"/>
                    <path d="M194.4337,180.85513l-3.98695,3.99768c-0.23513,0.23585 -0.60023,0.23585 -0.8339,0l-3.98549,-3.99768c-0.37971,-0.38234 -0.10369,-1.01077 0.42352,-1.01077h1.98472l1.1844,-4.70229c0.11684,-0.45412 0.58271,-0.73245 1.0369,-0.61525c0.31983,0.07178 0.55496,0.32081 0.62652,0.61525l1.1844,4.70229h1.94236c0.52429,0 0.80323,0.62843 0.42352,1.01077zM197.5,183.69906v2.41706c0,1.86041 -1.50424,3.38389 -3.35897,3.38389h-8.26599c-1.86934,0 -3.37504,-1.52348 -3.37504,-3.38389v-2.41706c0,-0.61525 0.498,-1.09867 1.09532,-1.09867c0.60023,0 1.09531,0.48341 1.09531,1.09867v2.41706c0,0.64455 0.52721,1.18656 1.1844,1.18656h8.26599c0.64259,0 1.16834,-0.54201 1.16834,-1.18656v-2.41706c0,-0.61525 0.49654,-1.09867 1.09531,-1.09867c0.61338,0 1.09532,0.48341 1.09532,1.09867z"/>
                </g>
                <g>
                    <path d="M214.4337,195.85513l-3.98695,3.99768c-0.23513,0.23585 -0.60023,0.23585 -0.8339,0l-3.98549,-3.99768c-0.37971,-0.38234 -0.10369,-1.01077 0.42352,-1.01077h1.98472l1.1844,-4.70229c0.11684,-0.45412 0.58271,-0.73245 1.0369,-0.61525c0.31983,0.07178 0.55496,0.32081 0.62652,0.61525l1.1844,4.70229h1.94236c0.52429,0 0.80323,0.62843 0.42352,1.01077zM217.5,198.69906v2.41706c0,1.86041 -1.50424,3.38389 -3.35897,3.38389h-8.26599c-1.86934,0 -3.37504,-1.52348 -3.37504,-3.38389v-2.41706c0,-0.61525 0.498,-1.09867 1.09532,-1.09867c0.60023,0 1.09531,0.48341 1.09531,1.09867v2.41706c0,0.64455 0.52721,1.18656 1.1844,1.18656h8.26599c0.64259,0 1.16834,-0.54201 1.16834,-1.18656v-2.41706c0,-0.61525 0.49654,-1.09867 1.09531,-1.09867c0.61338,0 1.09532,0.48341 1.09532,1.09867z"/>
                    <path d="M214.4337,215.85513l-3.98695,3.99768c-0.23513,0.23585 -0.60023,0.23585 -0.8339,0l-3.98549,-3.99768c-0.37971,-0.38234 -0.10369,-1.01077 0.42352,-1.01077h1.98472l1.1844,-4.70229c0.11684,-0.45412 0.58271,-0.73245 1.0369,-0.61525c0.31983,0.07178 0.55496,0.32081 0.62652,0.61525l1.1844,4.70229h1.94236c0.52429,0 0.80323,0.62843 0.42352,1.01077zM217.5,218.69906v2.41706c0,1.86041 -1.50424,3.38389 -3.35897,3.38389h-8.26599c-1.86934,0 -3.37504,-1.52348 -3.37504,-3.38389v-2.41706c0,-0.61525 0.498,-1.09867 1.09532,-1.09867c0.60023,0 1.09531,0.48341 1.09531,1.09867v2.41706c0,0.64455 0.52721,1.18656 1.1844,1.18656h8.26599c0.64259,0 1.16834,-0.54201 1.16834,-1.18656v-2.41706c0,-0.61525 0.49654,-1.09867 1.09531,-1.09867c0.61338,0 1.09532,0.48341 1.09532,1.09867z"/>
                    <path d="M214.4337,235.85513l-3.98695,3.99768c-0.23513,0.23585 -0.60023,0.23585 -0.8339,0l-3.98549,-3.99768c-0.37971,-0.38234 -0.10369,-1.01077 0.42352,-1.01077h1.98472l1.1844,-4.70229c0.11684,-0.45412 0.58271,-0.73245 1.0369,-0.61525c0.31983,0.07178 0.55496,0.32081 0.62652,0.61525l1.1844,4.70229h1.94236c0.52429,0 0.80323,0.62843 0.42352,1.01077zM217.5,238.69906v2.41706c0,1.86041 -1.50424,3.38389 -3.35897,3.38389h-8.26599c-1.86934,0 -3.37504,-1.52348 -3.37504,-3.38389v-2.41706c0,-0.61525 0.498,-1.09867 1.09532,-1.09867c0.60023,0 1.09531,0.48341 1.09531,1.09867v2.41706c0,0.64455 0.52721,1.18656 1.1844,1.18656h8.26599c0.64259,0 1.16834,-0.54201 1.16834,-1.18656v-2.41706c0,-0.61525 0.49654,-1.09867 1.09531,-1.09867c0.61338,0 1.09532,0.48341 1.09532,1.09867z"/>
                    <path d="M214.4337,255.85513l-3.98695,3.99768c-0.23513,0.23585 -0.60023,0.23585 -0.8339,0l-3.98549,-3.99768c-0.37971,-0.38234 -0.10369,-1.01077 0.42352,-1.01077h1.98472l1.1844,-4.70229c0.11684,-0.45412 0.58271,-0.73245 1.0369,-0.61525c0.31983,0.07178 0.55496,0.32081 0.62652,0.61525l1.1844,4.70229h1.94236c0.52429,0 0.80323,0.62843 0.42352,1.01077zM217.5,258.69906v2.41706c0,1.86041 -1.50424,3.38389 -3.35897,3.38389h-8.26599c-1.86934,0 -3.37504,-1.52348 -3.37504,-3.38389v-2.41706c0,-0.61525 0.498,-1.09867 1.09532,-1.09867c0.60023,0 1.09531,0.48341 1.09531,1.09867v2.41706c0,0.64455 0.52721,1.18656 1.1844,1.18656h8.26599c0.64259,0 1.16834,-0.54201 1.16834,-1.18656v-2.41706c0,-0.61525 0.49654,-1.09867 1.09531,-1.09867c0.61338,0 1.09532,0.48341 1.09532,1.09867z"/>
                    <path d="M214.4337,275.85513l-3.98695,3.99768c-0.23513,0.23585 -0.60023,0.23585 -0.8339,0l-3.98549,-3.99768c-0.37971,-0.38234 -0.10369,-1.01077 0.42352,-1.01077h1.98472l1.1844,-4.70229c0.11684,-0.45412 0.58271,-0.73245 1.0369,-0.61525c0.31983,0.07178 0.55496,0.32081 0.62652,0.61525l1.1844,4.70229h1.94236c0.52429,0 0.80323,0.62843 0.42352,1.01077zM217.5,278.69906v2.41706c0,1.86041 -1.50424,3.38389 -3.35897,3.38389h-8.26599c-1.86934,0 -3.37504,-1.52348 -3.37504,-3.38389v-2.41706c0,-0.61525 0.498,-1.09867 1.09532,-1.09867c0.60023,0 1.09531,0.48341 1.09531,1.09867v2.41706c0,0.64455 0.52721,1.18656 1.1844,1.18656h8.26599c0.64259,0 1.16834,-0.54201 1.16834,-1.18656v-2.41706c0,-0.61525 0.49654,-1.09867 1.09531,-1.09867c0.61338,0 1.09532,0.48341 1.09532,1.09867z"/>
                    <path d="M214.4337,135.85512l-3.98695,3.99768c-0.23513,0.23585 -0.60023,0.23585 -0.8339,0l-3.98549,-3.99768c-0.37971,-0.38234 -0.10369,-1.01077 0.42352,-1.01077h1.98472c0,0 0.67129,-2.66516 0.88807,-3.5258c0.12522,-0.49715 2.15934,-0.38407 2.29728,0.16357c0.21849,0.86745 0.84687,3.36223 0.84687,3.36223h1.94236c0.52429,0 0.80323,0.62843 0.42352,1.01077zM217.5,138.69905v2.41706c0,1.86041 -1.50424,3.38389 -3.35897,3.38389h-8.26599c-1.86934,0 -3.37504,-1.52348 -3.37504,-3.38389v-2.41706c0,-0.61525 0.498,-1.09867 1.09532,-1.09867c0.60023,0 1.09531,0.48341 1.09531,1.09867v2.41706c0,0.64455 0.52721,1.18656 1.1844,1.18656h8.26599c0.64259,0 1.16834,-0.54201 1.16834,-1.18656v-2.41706c0,-0.61525 0.49654,-1.09867 1.09531,-1.09867c0.61338,0 1.09532,0.48341 1.09532,1.09867z"/>
                    <path d="M214.4337,155.85512l-3.98695,3.99768c-0.23513,0.23585 -0.60023,0.23585 -0.8339,0l-3.98549,-3.99768c-0.37971,-0.38234 -0.10369,-1.01077 0.42352,-1.01077h1.98472l1.1844,-4.70229c0.11684,-0.45412 0.58271,-0.73245 1.0369,-0.61525c0.31983,0.07178 0.55496,0.32081 0.62652,0.61525l1.1844,4.70229h1.94236c0.52429,0 0.80323,0.62843 0.42352,1.01077zM217.5,158.69905v2.41706c0,1.86041 -1.50424,3.38389 -3.35897,3.38389h-8.26599c-1.86934,0 -3.37504,-1.52348 -3.37504,-3.38389v-2.41706c0,-0.61525 0.498,-1.09867 1.09532,-1.09867c0.60023,0 1.09531,0.48341 1.09531,1.09867v2.41706c0,0.64455 0.52721,1.18656 1.1844,1.18656h8.26599c0.64259,0 1.16834,-0.54201 1.16834,-1.18656v-2.41706c0,-0.61525 0.49654,-1.09867 1.09531,-1.09867c0.61338,0 1.09532,0.48341 1.09532,1.09867z"/>
                    <path d="M214.4337,175.85513l-3.98695,3.99768c-0.23513,0.23585 -0.60023,0.23585 -0.8339,0l-3.98549,-3.99768c-0.37971,-0.38234 -0.10369,-1.01077 0.42352,-1.01077h1.98472l1.1844,-4.70229c0.11684,-0.45412 0.58271,-0.73245 1.0369,-0.61525c0.31983,0.07178 0.55496,0.32081 0.62652,0.61525l1.1844,4.70229h1.94236c0.52429,0 0.80323,0.62843 0.42352,1.01077zM217.5,178.69906v2.41706c0,1.86041 -1.50424,3.38389 -3.35897,3.38389h-8.26599c-1.86934,0 -3.37504,-1.52348 -3.37504,-3.38389v-2.41706c0,-0.61525 0.498,-1.09867 1.09532,-1.09867c0.60023,0 1.09531,0.48341 1.09531,1.09867v2.41706c0,0.64455 0.52721,1.18656 1.1844,1.18656h8.26599c0.64259,0 1.16834,-0.54201 1.16834,-1.18656v-2.41706c0,-0.61525 0.49654,-1.09867 1.09531,-1.09867c0.61338,0 1.09532,0.48341 1.09532,1.09867z"/>
                </g>
                <g>
                    <path d="M234.4337,200.85513l-3.98695,3.99768c-0.23513,0.23585 -0.60023,0.23585 -0.8339,0l-3.98549,-3.99768c-0.37971,-0.38234 -0.10369,-1.01077 0.42352,-1.01077h1.98472l1.1844,-4.70229c0.11684,-0.45412 0.58271,-0.73245 1.0369,-0.61525c0.31983,0.07178 0.55496,0.32081 0.62652,0.61525l1.1844,4.70229h1.94236c0.52429,0 0.80323,0.62843 0.42352,1.01077zM237.5,203.69906v2.41706c0,1.86041 -1.50424,3.38389 -3.35897,3.38389h-8.26599c-1.86934,0 -3.37504,-1.52348 -3.37504,-3.38389v-2.41706c0,-0.61525 0.498,-1.09867 1.09532,-1.09867c0.60023,0 1.09531,0.48341 1.09531,1.09867v2.41706c0,0.64455 0.52721,1.18656 1.1844,1.18656h8.26599c0.64259,0 1.16834,-0.54201 1.16834,-1.18656v-2.41706c0,-0.61525 0.49654,-1.09867 1.09531,-1.09867c0.61338,0 1.09532,0.48341 1.09532,1.09867z"/>
                    <path d="M234.4337,220.85513l-3.98695,3.99768c-0.23513,0.23585 -0.60023,0.23585 -0.8339,0l-3.98549,-3.99768c-0.37971,-0.38234 -0.10369,-1.01077 0.42352,-1.01077h1.98472l1.1844,-4.70229c0.11684,-0.45412 0.58271,-0.73245 1.0369,-0.61525c0.31983,0.07178 0.55496,0.32081 0.62652,0.61525l1.1844,4.70229h1.94236c0.52429,0 0.80323,0.62843 0.42352,1.01077zM237.5,223.69906v2.41706c0,1.86041 -1.50424,3.38389 -3.35897,3.38389h-8.26599c-1.86934,0 -3.37504,-1.52348 -3.37504,-3.38389v-2.41706c0,-0.61525 0.498,-1.09867 1.09532,-1.09867c0.60023,0 1.09531,0.48341 1.09531,1.09867v2.41706c0,0.64455 0.52721,1.18656 1.1844,1.18656h8.26599c0.64259,0 1.16834,-0.54201 1.16834,-1.18656v-2.41706c0,-0.61525 0.49654,-1.09867 1.09531,-1.09867c0.61338,0 1.09532,0.48341 1.09532,1.09867z"/>
                    <path d="M234.4337,240.85513l-3.98695,3.99768c-0.23513,0.23585 -0.60023,0.23585 -0.8339,0l-3.98549,-3.99768c-0.37971,-0.38234 -0.10369,-1.01077 0.42352,-1.01077h1.98472l1.1844,-4.70229c0.11684,-0.45412 0.58271,-0.73245 1.0369,-0.61525c0.31983,0.07178 0.55496,0.32081 0.62652,0.61525l1.1844,4.70229h1.94236c0.52429,0 0.80323,0.62843 0.42352,1.01077zM237.5,243.69906v2.41706c0,1.86041 -1.50424,3.38389 -3.35897,3.38389h-8.26599c-1.86934,0 -3.37504,-1.52348 -3.37504,-3.38389v-2.41706c0,-0.61525 0.498,-1.09867 1.09532,-1.09867c0.60023,0 1.09531,0.48341 1.09531,1.09867v2.41706c0,0.64455 0.52721,1.18656 1.1844,1.18656h8.26599c0.64259,0 1.16834,-0.54201 1.16834,-1.18656v-2.41706c0,-0.61525 0.49654,-1.09867 1.09531,-1.09867c0.61338,0 1.09532,0.48341 1.09532,1.09867z"/>
                    <path d="M234.4337,260.85513l-3.98695,3.99768c-0.23513,0.23585 -0.60023,0.23585 -0.8339,0l-3.98549,-3.99768c-0.37971,-0.38234 -0.10369,-1.01077 0.42352,-1.01077h1.98472l1.1844,-4.70229c0.11684,-0.45412 0.58271,-0.73245 1.0369,-0.61525c0.31983,0.07178 0.55496,0.32081 0.62652,0.61525l1.1844,4.70229h1.94236c0.52429,0 0.80323,0.62843 0.42352,1.01077zM237.5,263.69906v2.41706c0,1.86041 -1.50424,3.38389 -3.35897,3.38389h-8.26599c-1.86934,0 -3.37504,-1.52348 -3.37504,-3.38389v-2.41706c0,-0.61525 0.498,-1.09867 1.09532,-1.09867c0.60023,0 1.09531,0.48341 1.09531,1.09867v2.41706c0,0.64455 0.52721,1.18656 1.1844,1.18656h8.26599c0.64259,0 1.16834,-0.54201 1.16834,-1.18656v-2.41706c0,-0.61525 0.49654,-1.09867 1.09531,-1.09867c0.61338,0 1.09532,0.48341 1.09532,1.09867z"/>
                    <path d="M234.4337,280.85513l-3.98695,3.99768c-0.23513,0.23585 -0.60023,0.23585 -0.8339,0l-3.98549,-3.99768c-0.37971,-0.38234 -0.10369,-1.01077 0.42352,-1.01077h1.98472l1.1844,-4.70229c0.11684,-0.45412 0.58271,-0.73245 1.0369,-0.61525c0.31983,0.07178 0.55496,0.32081 0.62652,0.61525l1.1844,4.70229h1.94236c0.52429,0 0.80323,0.62843 0.42352,1.01077zM237.5,283.69906h-15c0,-0.61525 0.498,-1.09867 1.09532,-1.09867c0.60023,0 1.09531,0.48341 1.09531,1.09867h10.61873c0,-0.61525 0.49654,-1.09867 1.09531,-1.09867c0.61338,0 1.09532,0.48341 1.09532,1.09867z"/>
                    <path d="M234.4337,140.85512l-3.98695,3.99768c-0.23513,0.23585 -0.60023,0.23585 -0.8339,0l-3.98549,-3.99768c-0.37971,-0.38234 -0.10369,-1.01077 0.42352,-1.01077h1.98472l1.1844,-4.70229c0.11684,-0.45412 0.58271,-0.73245 1.0369,-0.61525c0.31983,0.07178 0.55496,0.32081 0.62652,0.61525l1.1844,4.70229h1.94236c0.52429,0 0.80323,0.62843 0.42352,1.01077zM237.5,143.69905v2.41706c0,1.86041 -1.50424,3.38389 -3.35897,3.38389h-8.26599c-1.86934,0 -3.37504,-1.52348 -3.37504,-3.38389v-2.41706c0,-0.61525 0.498,-1.09867 1.09532,-1.09867c0.60023,0 1.09531,0.48341 1.09531,1.09867v2.41706c0,0.64455 0.52721,1.18656 1.1844,1.18656h8.26599c0.64259,0 1.16834,-0.54201 1.16834,-1.18656v-2.41706c0,-0.61525 0.49654,-1.09867 1.09531,-1.09867c0.61338,0 1.09532,0.48341 1.09532,1.09867z"/>
                    <path d="M234.4337,160.85512l-3.98695,3.99768c-0.23513,0.23585 -0.60023,0.23585 -0.8339,0l-3.98549,-3.99768c-0.37971,-0.38234 -0.10369,-1.01077 0.42352,-1.01077h1.98472l1.1844,-4.70229c0.11684,-0.45412 0.58271,-0.73245 1.0369,-0.61525c0.31983,0.07178 0.55496,0.32081 0.62652,0.61525l1.1844,4.70229h1.94236c0.52429,0 0.80323,0.62843 0.42352,1.01077zM237.5,163.69905v2.41706c0,1.86041 -1.50424,3.38389 -3.35897,3.38389h-8.26599c-1.86934,0 -3.37504,-1.52348 -3.37504,-3.38389v-2.41706c0,-0.61525 0.498,-1.09867 1.09532,-1.09867c0.60023,0 1.09531,0.48341 1.09531,1.09867v2.41706c0,0.64455 0.52721,1.18656 1.1844,1.18656h8.26599c0.64259,0 1.16834,-0.54201 1.16834,-1.18656v-2.41706c0,-0.61525 0.49654,-1.09867 1.09531,-1.09867c0.61338,0 1.09532,0.48341 1.09532,1.09867z"/>
                    <path d="M234.4337,180.85513l-3.98695,3.99768c-0.23513,0.23585 -0.60023,0.23585 -0.8339,0l-3.98549,-3.99768c-0.37971,-0.38234 -0.10369,-1.01077 0.42352,-1.01077h1.98472l1.1844,-4.70229c0.11684,-0.45412 0.58271,-0.73245 1.0369,-0.61525c0.31983,0.07178 0.55496,0.32081 0.62652,0.61525l1.1844,4.70229h1.94236c0.52429,0 0.80323,0.62843 0.42352,1.01077zM237.5,183.69906v2.41706c0,1.86041 -1.50424,3.38389 -3.35897,3.38389h-8.26599c-1.86934,0 -3.37504,-1.52348 -3.37504,-3.38389v-2.41706c0,-0.61525 0.498,-1.09867 1.09532,-1.09867c0.60023,0 1.09531,0.48341 1.09531,1.09867v2.41706c0,0.64455 0.52721,1.18656 1.1844,1.18656h8.26599c0.64259,0 1.16834,-0.54201 1.16834,-1.18656v-2.41706c0,-0.61525 0.49654,-1.09867 1.09531,-1.09867c0.61338,0 1.09532,0.48341 1.09532,1.09867z"/>
                </g>
            </g>
            <g fill="none" fill-rule="nonzero" stroke="#15bcbd" stroke-width="10">
                <path d="M285.12649,230.82085c-7.6569,0 -16.67343,0 -16.67343,0v-14.61339l1.61572,-2.26201l-1.61572,-2.0466v-14.8288c0,0 9.0165,0 16.67343,0c2.15894,0 4.15152,2.09828 4.15152,4.08421c0,4.00169 0,18.60272 0,25.71701c0,2.40121 -1.99258,3.94955 -4.15152,3.94955z"
                      data-paper-data="{&quot;index&quot;:null}"/>
                <path d="M211.63501,230.82085v-14.63805l1.61575,-2.23735l-1.61575,-2.0713v-14.8041h56.90953v14.8288l1.61575,2.0466l-1.61575,2.26201v14.61339z"/>
                <path d="M227.43802,183.32369c2.92151,0 3.80498,0.88347 3.80498,3.80498v5.10425c0,2.92151 -0.88347,3.80498 -3.80498,3.80498h-32.79476c-2.92151,0 -3.80498,-0.88347 -3.80498,-3.80498v-5.10425c0,-2.92151 0.88347,-3.80498 3.80498,-3.80498z"
                      data-paper-data="{&quot;index&quot;:null}"/>
                <path d="M190.72201,226.87126c0,-7.11426 0,-21.71528 0,-25.71701c0,-1.98593 1.99258,-4.08421 4.15152,-4.08421c7.65693,0 16.67343,0 16.67343,0v14.8288l1.61575,2.0466l-1.61575,2.26201v14.61339c0,0 -9.01653,0 -16.67343,0c-2.15894,0 -4.15152,-1.54834 -4.15152,-3.94955z"/>
            </g>
            <path d="M285.12649,230.82085c-7.6569,0 -16.67343,0 -16.67343,0v-14.61339l1.61572,-2.26201l-1.61572,-2.0466v-14.8288c0,0 9.0165,0 16.67343,0c2.15894,0 4.15152,2.09828 4.15152,4.08421c0,4.00169 0,18.60272 0,25.71701c0,2.40121 -1.99258,3.94955 -4.15152,3.94955z"
                  data-paper-data="{&quot;index&quot;:null}" fill="#ffd504" fill-rule="nonzero" stroke="#ffffff"
                  stroke-width="2"/>
            <path d="M211.63501,230.82085v-14.63805l1.61575,-2.23735l-1.61575,-2.0713v-14.8041h56.90953v14.8288l1.61575,2.0466l-1.61575,2.26201v14.61339z"
                  fill="#15bc8c" fill-rule="nonzero" stroke="#ffffff" stroke-width="2"/>
            <path d="M190.72201,226.87126c0,-7.11426 0,-21.71528 0,-25.71701c0,-1.98593 1.99258,-4.08421 4.15152,-4.08421c7.65693,0 16.67343,0 16.67343,0v14.8288l1.61575,2.0466l-1.61575,2.26201v14.61339c0,0 -9.01653,0 -16.67343,0c-2.15894,0 -4.15152,-1.54834 -4.15152,-3.94955z"
                  fill="#ffd504" fill-rule="nonzero" stroke="#ffffff" stroke-width="2"/>
            <path d="M227.43802,184.32369c2.92151,0 3.80498,0.88347 3.80498,3.80498v5.10425c0,2.92151 -0.88347,3.80498 -3.80498,3.80498h-32.79476c-2.92151,0 -3.80498,-0.88347 -3.80498,-3.80498v-5.10425c0,-2.92151 0.88347,-3.80498 3.80498,-3.80498z"
                  data-paper-data="{&quot;index&quot;:null}" fill="#ececec" fill-rule="nonzero" stroke="#ffffff"
                  stroke-width="2"/>
            <path d="M177.31917,135.92917c-0.02283,-2.22749 2.2102,-4.30964 4.43305,-4.32223c3.90328,-0.02211 102.05215,-0.00678 116.71738,-0.00155c2.00542,0.00045 4.21143,2.24023 4.21143,4.54543c0,4.22795 0,136.13589 0,143.5983c0,1.95182 -2.11347,4.32223 -4.43305,4.32223c-7.95247,0 -102.68437,0 -116.71742,0c-2.04897,0 -4.19343,-2.32752 -4.18734,-4.54278c0,0 0.06264,-135.14251 -0.02405,-143.5994z"
                  fill="none" fill-rule="nonzero" stroke="#e6e6e6" stroke-width="3"/>
            <path d="M283.55636,181.60091l-3.82747,3.83777c-0.22573,0.22642 -0.57622,0.22642 -0.80054,0l-3.82607,-3.83777c-0.36452,-0.36704 -0.09954,-0.97034 0.40658,-0.97034h1.90533l1.13702,-4.5142c0.11217,-0.43596 0.5594,-0.70315 0.99543,-0.59064c0.30703,0.06891 0.53276,0.30797 0.60145,0.59064l1.13703,4.5142h1.86466c0.50332,0 0.77111,0.6033 0.40659,0.97034zM286.5,184.33108v2.32038c0,1.786 -1.44407,3.24853 -3.22461,3.24853h-7.93535c-1.79456,0 -3.24004,-1.46254 -3.24004,-3.24853v-2.32038c0,-0.59064 0.47808,-1.05472 1.0515,-1.05472c0.57622,0 1.0515,0.46407 1.0515,1.05472v2.32038c0,0.61876 0.50612,1.1391 1.13702,1.1391h7.93535c0.61689,0 1.1216,-0.52033 1.1216,-1.1391v-2.32038c0,-0.59064 0.47668,-1.05472 1.0515,-1.05472c0.58884,0 1.05151,0.46407 1.05151,1.05472z"
                  data-paper-data="{&quot;index&quot;:null}" fill="#ffffff" fill-rule="evenodd" stroke="#15bcbd"
                  stroke-width="4.5"/>
            <path d="M283.55635,181.60091l-3.82747,3.83778c-0.22573,0.22642 -0.57622,0.22642 -0.80054,0l-3.82607,-3.83778c-0.36452,-0.36704 -0.09954,-0.97034 0.40658,-0.97034h1.90533l1.13702,-4.5142c0.11217,-0.43596 0.5594,-0.70315 0.99543,-0.59064c0.30703,0.06891 0.53276,0.30797 0.60145,0.59064l1.13703,4.5142h1.86466c0.50332,0 0.77111,0.6033 0.40659,0.97034zM286.5,184.33108v2.32038c0,1.786 -1.44407,3.24854 -3.22461,3.24854h-7.93535c-1.79456,0 -3.24004,-1.46254 -3.24004,-3.24854v-2.32038c0,-0.59064 0.47808,-1.05472 1.0515,-1.05472c0.57622,0 1.0515,0.46407 1.0515,1.05472v2.32038c0,0.61876 0.50612,1.1391 1.13702,1.1391h7.93535c0.61689,0 1.1216,-0.52033 1.1216,-1.1391v-2.32038c0,-0.59064 0.47668,-1.05472 1.0515,-1.05472c0.58884,0 1.05151,0.46407 1.05151,1.05472z"
                  data-paper-data="{&quot;index&quot;:null}" fill="#ffffff" fill-rule="evenodd" stroke="none"
                  stroke-width="1"/>
        </g>
    </g>
</svg>