<svg version="1.1" xmlns="http://www.w3.org/2000/svg" width="91.81642"
     height="50.82482" viewBox="0,0,91.81642,50.82482">
    <g transform="translate(-194.09442,-154.87599)">
        <g data-paper-data="{&quot;isPaintingLayer&quot;:true}" stroke-miterlimit="10" stroke-dasharray=""
           stroke-dashoffset="0" style="mix-blend-mode: normal">
            <g fill-rule="nonzero" stroke-linecap="butt" stroke-linejoin="miter">
                <g>
                    <g>
                        <path d="M250.35442,178.77482l5.05405,0.00003c0.61862,0 1.12011,0.50149 1.12011,1.12011v0.22943c0,0.61862 -0.50151,1.12013 -1.12013,1.12013l-5.05405,0.00003l-2.4697,0.00002l-5.05405,-0.00003c-0.61862,0 -1.12011,-0.50149 -1.12011,-1.12011v-0.22943c0,-0.61862 0.50151,-1.12013 1.12013,-1.12013h5.05402z"
                              fill="none" stroke="#b648ff" stroke-width="3"/>
                        <path d="M250.35442,178.77482l5.05405,0.00003c0.61862,0 1.12011,0.50149 1.12011,1.12011v0.22943c0,0.61862 -0.50151,1.12013 -1.12013,1.12013l-5.05405,0.00003l-2.4697,0.00002l-5.05405,-0.00003c-0.61862,0 -1.12011,-0.50149 -1.12011,-1.12011v-0.22943c0,-0.61862 0.50151,-1.12013 1.12013,-1.12013h5.05402z"
                              fill="#ffffff" stroke="none" stroke-width="0"/>
                    </g>
                    <g fill="#ffffff" stroke="#b648ff">
                        <path d="M249.2418,185.10818c0.61862,0 1.12011,0.50149 1.12011,1.12011v0.22943c0,0.61862 -0.50151,1.12013 -1.12013,1.12013l-0.24447,0.00002c-0.61862,0 -1.12011,-0.50149 -1.12011,-1.12011v-0.22943c0,-0.61862 0.50151,-1.12013 1.12013,-1.12013z"
                              stroke-width="3"/>
                        <path d="M249.2418,185.10818c0.61862,0 1.12011,0.50149 1.12011,1.12011v0.22943c0,0.61862 -0.50151,1.12013 -1.12013,1.12013l-0.24446,0.00002c-0.61862,0 -1.12011,-0.50149 -1.12011,-1.12011v-0.22943c0,-0.61862 0.50151,-1.12013 1.12013,-1.12013z"
                              stroke-width="0"/>
                    </g>
                    <g fill="#ffffff" stroke="#b648ff">
                        <path d="M249.2418,172.10818c0.61862,0 1.12011,0.50149 1.12011,1.12011v0.22943c0,0.61862 -0.50151,1.12013 -1.12013,1.12013l-0.24447,0.00002c-0.61862,0 -1.12011,-0.50149 -1.12011,-1.12011v-0.22943c0,-0.61862 0.50151,-1.12013 1.12013,-1.12013z"
                              stroke-width="3"/>
                        <path d="M249.2418,172.10818c0.61862,0 1.12011,0.50149 1.12011,1.12011v0.22943c0,0.61862 -0.50151,1.12013 -1.12013,1.12013l-0.24446,0.00002c-0.61862,0 -1.12011,-0.50149 -1.12011,-1.12011v-0.22943c0,-0.61862 0.50151,-1.12013 1.12013,-1.12013z"
                              stroke-width="0"/>
                    </g>
                </g>
                <g>
                    <path d="M230.35442,178.94147l5.05405,0.00003c0.61862,0 1.12011,0.50149 1.12011,1.12011v0.22943c0,0.61862 -0.50151,1.12013 -1.12013,1.12013l-5.05405,0.00003c0,0 0,0.43476 0,0.81094c0,0.86045 0,4.24311 0,4.24311c0,0.61862 -0.50151,1.12013 -1.12013,1.12013h-0.22943c-0.61862,0 -1.12011,-0.50149 -1.12011,-1.12011l-0.00003,-5.05405l-5.05405,-0.00003c-0.61862,0 -1.12011,-0.50149 -1.12011,-1.12011v-0.22943c0,-0.61862 0.50151,-1.12013 1.12013,-1.12013h5.05402l0.00003,-5.05405c0,-0.61862 0.50151,-1.12013 1.12013,-1.12013h0.22943c0.61862,0 1.12011,0.50149 1.12011,1.12011z"
                          fill="none" stroke="#b648ff" stroke-width="3"/>
                    <path d="M230.35442,178.94147l5.05405,0.00003c0.61862,0 1.12011,0.50149 1.12011,1.12011v0.22943c0,0.61862 -0.50151,1.12013 -1.12013,1.12013l-5.05405,0.00003c0,0 0,0.43476 0,0.81094c0,0.86045 0,4.24311 0,4.24311c0,0.61862 -0.50151,1.12013 -1.12013,1.12013h-0.22943c-0.61862,0 -1.12011,-0.50149 -1.12011,-1.12011l-0.00003,-5.05405l-5.05405,-0.00003c-0.61862,0 -1.12011,-0.50149 -1.12011,-1.12011v-0.22943c0,-0.61862 0.50151,-1.12013 1.12013,-1.12013h5.05402l0.00003,-5.05405c0,-0.61862 0.50151,-1.12013 1.12013,-1.12013h0.22943c0.61862,0 1.12011,0.50149 1.12011,1.12011z"
                          fill="#ffffff" stroke="none" stroke-width="0"/>
                </g>
                <g>
                    <path d="M210.86593,180.17634l3.57373,3.57377c0.43743,0.43743 0.43743,1.14664 0,1.58407l-0.16223,0.16223c-0.43743,0.43743 -1.14667,0.43743 -1.5841,0l-3.57377,-3.57373c0,0 -0.30742,0.30742 -0.57342,0.57342c-0.60843,0.60843 -3.00033,3.00033 -3.00033,3.00033c-0.43743,0.43743 -1.14667,0.43743 -1.5841,0l-0.16223,-0.16223c-0.43743,-0.43743 -0.43743,-1.14664 0,-1.58407l3.57373,-3.57377l-3.57373,-3.57377c-0.43743,-0.43743 -0.43743,-1.14664 0,-1.58407l0.16223,-0.16223c0.43743,-0.43743 1.14667,-0.43743 1.5841,0l3.57373,3.57373l3.57377,-3.57373c0.43743,-0.43743 1.14667,-0.43743 1.5841,0l0.16223,0.16223c0.43743,0.43743 0.43743,1.14664 0,1.58407z"
                          fill="none" stroke="#b648ff" stroke-width="3"/>
                    <path d="M210.86593,180.17634l3.57373,3.57377c0.43743,0.43743 0.43743,1.14664 0,1.58407l-0.16223,0.16223c-0.43743,0.43743 -1.14667,0.43743 -1.5841,0l-3.57377,-3.57373c0,0 -0.30742,0.30742 -0.57342,0.57342c-0.60843,0.60843 -3.00033,3.00033 -3.00033,3.00033c-0.43743,0.43743 -1.14667,0.43743 -1.5841,0l-0.16223,-0.16223c-0.43743,-0.43743 -0.43743,-1.14664 0,-1.58407l3.57373,-3.57377l-3.57373,-3.57377c-0.43743,-0.43743 -0.43743,-1.14664 0,-1.58407l0.16223,-0.16223c0.43743,-0.43743 1.14667,-0.43743 1.5841,0l3.57373,3.57373l3.57377,-3.57373c0.43743,-0.43743 1.14667,-0.43743 1.5841,0l0.16223,0.16223c0.43743,0.43743 0.43743,1.14664 0,1.58407z"
                          fill="#ffffff" stroke="none" stroke-width="0"/>
                </g>
                <g>
                    <g>
                        <path d="M270.35441,179.10815l5.05405,0.00003c0.61862,0 1.12011,0.50149 1.12011,1.12011v0.22943c0,0.61862 -0.50151,1.12013 -1.12013,1.12013l-5.05405,0.00003l-2.4697,0.00002l-5.05405,-0.00003c-0.61862,0 -1.12011,-0.50149 -1.12011,-1.12011v-0.22943c0,-0.61862 0.50151,-1.12013 1.12013,-1.12013h5.05402z"
                              fill="none" stroke="#b648ff" stroke-width="3"/>
                        <path d="M270.35441,179.10815l5.05405,0.00003c0.61862,0 1.12011,0.50149 1.12011,1.12011v0.22943c0,0.61862 -0.50151,1.12013 -1.12013,1.12013l-5.05405,0.00003l-2.4697,0.00002l-5.05405,-0.00003c-0.61862,0 -1.12011,-0.50149 -1.12011,-1.12011v-0.22943c0,-0.61862 0.50151,-1.12013 1.12013,-1.12013h5.05402z"
                              fill="#ffffff" stroke="none" stroke-width="0"/>
                    </g>
                    <g fill="none" stroke="none" stroke-width="1" font-family="sans-serif" font-weight="normal"
                       font-size="12" text-anchor="start"/>
                    <g fill="#ffffff" stroke="#b648ff" stroke-width="0">
                        <path d=""/>
                    </g>
                </g>
            </g>
            <path d="M194.81783,204.62411h90.36433z" fill="none" fill-rule="nonzero" stroke-width="1.5"
                  stroke-linecap="round" stroke-linejoin="miter"/>
            <path d="" data-paper-data="{&quot;index&quot;:null}" fill="#626262" fill-rule="evenodd" stroke="#7fd9ff"
                  stroke-width="3" stroke-linecap="butt" stroke-linejoin="miter"/>
            <path d="M194.84454,158.73992c-0.01645,-1.60479 1.59233,-3.10486 3.19377,-3.11393c2.8121,-0.01593 73.52292,-0.00489 84.08841,-0.00112c1.44479,0.00032 3.03411,1.61396 3.03411,3.27474c0,2.40431 0,41.80468 0,42.93727c0,1.40617 -1.52264,3.11393 -3.19377,3.11393c-5.72931,0 -73.9784,0 -84.08843,0c-1.47617,0 -3.02113,-1.67685 -3.01674,-3.27283c0,0 0.04511,-36.84534 -0.01734,-42.93806z"
                  fill="#c366ff" fill-rule="nonzero" stroke-width="0" stroke-linecap="butt" stroke-linejoin="miter"/>
            <path d="M203.17669,204.33489c0,0 4.27839,-1.91635 7.74196,-4.998c2.56556,-2.28266 4.38316,-5.65603 5.25804,-7.002c1.13485,-1.74592 7.09702,-12.88364 13.40396,-19.60035c5.11924,-5.45184 5.41946,-5.31453 11.59605,-7.73298c6.17659,-2.41845 16.66666,-3.33333 16.66666,-3.33333c0,0 -4.30424,0.25712 -10.33334,4.33334c-6.0291,4.07622 -9.43191,6.53121 -13.92052,12.06446c-4.62394,5.70007 -7.07173,12.39528 -7.41281,13.6022c-0.67219,2.37851 -0.99228,4.13615 0,6.33333c0.99227,2.19718 2.52121,2.92727 4.66667,4c2.14545,1.07273 8.66666,2.66667 8.66666,2.66667z"
                  fill="#cc7fff" fill-rule="nonzero" stroke="#cc7fff" stroke-width="0" stroke-linecap="round"
                  stroke-linejoin="miter"/>
            <path d="M265.17668,156.00157c0,0 6.4482,4.17301 4.66667,8c-1.78153,3.82699 -13.66667,11.33334 -13.66667,11.33334c0,0 -9.92171,7.20104 -13.66666,12.66666c-3.74496,5.46562 5.05265,8.41053 8,9c2.94735,0.58947 11.66666,0 11.66666,0c0,0 -7.47203,1.62021 -12.33333,2c-4.8613,0.37979 -5.59904,0.55388 -9,-0.33333c-3.40096,-0.8872 -4.85113,-1.22539 -6.33334,-3.66667c-1.4822,-2.44128 -0.39585,-3.58251 0.66666,-5.66666c1.06251,-2.08416 4.4016,-7.28514 8,-11.33334c3.5984,-4.0482 6.23205,-6.20916 10.66667,-9.66666c4.43462,-3.4575 6.0889,-2.82085 7.66666,-6.66666c1.57777,-3.84581 -2.33334,-6.33334 -2.33334,-6.33334z"
                  fill="#cc7fff" fill-rule="nonzero" stroke="#000000" stroke-width="0" stroke-linecap="round"
                  stroke-linejoin="miter"/>
            <path d="M237.51002,155.3349c0,0 -5.5633,1.8567 -9.64661,6.59215c-4.93725,5.72577 -8.78878,14.89028 -12.02005,20.07451c-5.90367,9.47182 -20,22 -20,22c0,0 10.35096,-13.1322 15,-22.66666c4.64904,-9.53446 5,-26 5,-26z"
                  fill="#cc7fff" fill-rule="nonzero" stroke="#cc7fff" stroke-width="0" stroke-linecap="round"
                  stroke-linejoin="miter"/>
            <path d="M262.84334,204.33489c0,0 5.33474,-5.01867 7.66666,-9c2.33193,-3.98133 4.7979,-8.38959 6,-14.33334c1.2021,-5.94375 0,-15.33333 0,-15.33333c0,0 2.22587,5.3917 3.66666,8.33333c1.4408,2.94163 4.33334,8 4.33334,8l0.47619,6.14286l0.10286,16.28l-7.91238,0.24381c0,0 2.45881,-2.34895 3,-4.33334c0.54119,-1.98439 -0.33333,-9.33334 -0.33333,-9.33334c0,0 -2.02238,6.56146 -4,8.66667c-1.97762,2.10521 -6,5 -6,5z"
                  fill="#cc7fff" fill-rule="nonzero" stroke="#000000" stroke-width="0" stroke-linecap="round"
                  stroke-linejoin="miter"/>
            <path d="M282.55763,155.04919l2.42857,2.71428l-0.14285,13.42858c0,0 -1.05716,-4.96986 -6.42857,-11.28571c-4.20985,-4.95005 -8.57143,-4.14286 -8.57143,-4.14286z"
                  fill="#cc7fff" fill-rule="nonzero" stroke="#000000" stroke-width="0" stroke-linecap="round"
                  stroke-linejoin="miter"/>
            <path d="M208.17669,172.3349c-1.18542,4.53251 -2.04145,6.74555 -4.66666,10.33334c-2.62521,3.58778 -8.33334,10 -8.33334,10c0,0 -0.33333,-9.13743 -0.33333,-11c0,-1.86257 2.05075,-4.84501 3.33333,-7.66667c1.28257,-2.82166 3.42102,-3.95507 4.66667,-7c1.24565,-3.04493 1.33333,-7.66666 1.33333,-7.66666c0,0 5.18542,8.46749 4,13z"
                  fill="#cc7fff" fill-rule="nonzero" stroke-width="0" stroke-linecap="round" stroke-linejoin="miter"/>
            <path d="M250.17668,189.3349c-0.19539,-1.42871 1.01347,-1.77685 5,-5c3.98652,-3.22315 8.74734,-6.31904 10.66667,-7.66666c1.91933,-1.34762 3.54566,-1.99853 5,-3.33334c0.87408,-0.80224 -0.77451,6.58375 -1.33334,8.66666c-0.55883,2.08291 -3.25835,7.62306 -5.66666,8.66667c-2.40831,1.0436 -3.83894,0.94254 -6.66667,0.66666c-2.82773,-0.27588 -6.81946,-0.67989 -7,-2z"
                  fill="#cc7fff" fill-rule="nonzero" stroke="#000000" stroke-width="0" stroke-linecap="round"
                  stroke-linejoin="miter"/>
            <path d="M194.84454,158.73992c-0.01645,-1.60479 1.59233,-3.10486 3.19377,-3.11393c2.8121,-0.01593 73.52292,-0.00489 84.08841,-0.00112c1.44479,0.00032 3.03411,1.61396 3.03411,3.27474c0,2.40431 0,41.80468 0,42.93727c0,1.40617 -1.52264,3.11393 -3.19377,3.11393c-5.72931,0 -73.9784,0 -84.08843,0c-1.47617,0 -3.02113,-1.67685 -3.01674,-3.27283c0,0 0.04511,-36.84534 -0.01734,-42.93806z"
                  fill="none" fill-rule="nonzero" stroke-width="1.5" stroke-linecap="butt" stroke-linejoin="miter"/>
            <path d="M218.81989,177.28686c-2.28877,-3.40752 4.60704,-4.55724 8.33543,2.11979c2.13117,3.81661 4.8155,0.53039 5.91719,-2.30405c1.44995,-3.73053 3.77428,-8.52717 5.11253,-11.43525c1.51149,-3.28373 5.64399,-1.13655 4.37902,1.82667c-1.72208,4.03325 -5.33628,10.52779 -4.26625,11.1713c1.15363,0.69403 4.79166,-8.26998 7.84026,-13.25302c2.22188,-3.63234 5.82257,-1.58904 4.21361,2.3784c-1.92627,4.75004 -6.52335,11.15529 -5.75071,11.77319c0.77762,0.62146 4.69597,-5.57462 7.03347,-9.36384c1.90422,-3.0863 5.47111,-0.5962 3.73835,2.2233c-2.60891,4.24455 -8.11239,10.86858 -7.41908,11.46442c0.91173,0.78296 3.934,-3.63377 5.7283,-5.83929c2.17208,-2.67045 4.83435,-0.23656 3.17025,2.05291c-2.93334,4.03539 -10.42783,13.53665 -12.56505,16.142c-5.04316,6.14628 -19.91475,1.42825 -19.91226,-8.81933c0.00178,-5.48427 -4.25309,-8.19777 -5.55506,-10.1372z"
                  fill="#c366ff" fill-rule="evenodd" stroke="#ffffff" stroke-width="3" stroke-linecap="butt"
                  stroke-linejoin="miter"/>
            <path d="M227.12894,170.73683c-0.16257,-1.62426 0.57201,-3.20832 1.91702,-4.13392" fill="none"
                  fill-rule="nonzero" stroke="#fefefe" stroke-width="2.5" stroke-linecap="round"
                  stroke-linejoin="round"/>
            <path d="M222.99992,170.85667c-0.29419,-2.94045 1.03517,-5.80798 3.46978,-7.48311" fill="none"
                  fill-rule="nonzero" stroke="#fefefe" stroke-width="2.5" stroke-linecap="round"
                  stroke-linejoin="round"/>
            <path d="M257.50574,189.07286c-0.24439,1.65343 -1.3692,3.04301 -2.93583,3.62605" fill="none"
                  fill-rule="nonzero" stroke="#fefefe" stroke-width="2.5" stroke-linecap="round"
                  stroke-linejoin="round"/>
            <path d="M261.63539,189.98441c-0.44181,2.99303 -2.47801,5.50839 -5.31387,6.56383" fill="none"
                  fill-rule="nonzero" stroke="#fefefe" stroke-width="2.5" stroke-linecap="round"
                  stroke-linejoin="round"/>
        </g>
    </g>
</svg>