<svg version="1.1" xmlns="http://www.w3.org/2000/svg" xmlns:xlink="http://www.w3.org/1999/xlink"
     width="20" height="14.7" viewBox="0,0,14.3282,11.00002">
    <g transform="translate(-232.8359,-174.49999)">
        <g data-paper-data="{&quot;isPaintingLayer&quot;:true}" fill="#4c97ff" fill-rule="evenodd" stroke="none"
           stroke-width="1" stroke-linecap="butt" stroke-linejoin="miter" stroke-miterlimit="10" stroke-dasharray=""
           stroke-dashoffset="0" style="mix-blend-mode: normal">
            <path d="M232.8359,179.99348c0,-0.31109 0.1189,-0.60144 0.33321,-0.81713l4.34146,-4.34146c0.35672,-0.33598 0.85723,-0.42586 1.28723,-0.2392c0.43,0.18527 0.69546,0.59454 0.69546,1.06878v1.64672l6.0421,0.83925c0.92498,0.12029 1.62874,0.92499 1.62874,1.87209c0,0.08157 -0.00553,0.16454 -0.01521,0.24611c-0.13412,0.85447 -0.80054,1.51398 -1.62044,1.61767l-6.03519,0.86138v1.57482c0,0.47977 -0.28205,0.90701 -0.71758,1.08814c-0.4383,0.18113 -0.9236,0.08295 -1.26511,-0.25856l-4.34146,-4.34146c-0.21431,-0.21569 -0.33321,-0.50605 -0.33321,-0.81714"/>
        </g>
    </g>
</svg>