<svg version="1.1" xmlns="http://www.w3.org/2000/svg" xmlns:xlink="http://www.w3.org/1999/xlink" width="11.2963" height="11.29635" viewBox="0,0,11.2963,11.29635"><g transform="translate(-234.35185,-174.35183)"><g data-paper-data="{&quot;isPaintingLayer&quot;:true}" fill="#ffffff" fill-rule="nonzero" stroke="#000000" stroke-width="0" stroke-linecap="butt" stroke-linejoin="miter" stroke-miterlimit="10" stroke-dasharray="" stroke-dashoffset="0" style="mix-blend-mode: normal"><path d="M239.99998,178.25363l3.57377,-3.57373c0.43743,-0.43743 1.14665,-0.43743 1.58408,0l0.16223,0.16223c0.43743,0.43743 0.43743,1.14667 0,1.58411l-3.57373,3.57377c0,0 0.30742,0.30742 0.57342,0.57342c0.60843,0.60843 3.00033,3.00033 3.00033,3.00033c0.43743,0.43743 0.43743,1.14667 0,1.58411l-0.16223,0.16223c-0.43743,0.43743 -1.14665,0.43743 -1.58408,0l-3.57377,-3.57373l-3.57377,3.57373c-0.43743,0.43743 -1.14665,0.43743 -1.58408,0l-0.16223,-0.16223c-0.43743,-0.43743 -0.43743,-1.14667 0,-1.58411l3.57373,-3.57373l-3.57373,-3.57377c-0.43743,-0.43743 -0.43743,-1.14667 0,-1.58411l0.16223,-0.16223c0.43743,-0.43743 1.14665,-0.43743 1.58408,0z"/></g></g></svg>