<svg version="1.1" xmlns="http://www.w3.org/2000/svg" xmlns:xlink="http://www.w3.org/1999/xlink" width="69.68934" height="19.88278" viewBox="0,0,69.68934,19.88278"><g transform="translate(-205.15533,-170.05861)"><g data-paper-data="{&quot;isPaintingLayer&quot;:true}" fill="#ececec" fill-rule="nonzero" stroke="#ffffff" stroke-width="1" stroke-linecap="butt" stroke-linejoin="miter" stroke-miterlimit="10" stroke-dasharray="" stroke-dashoffset="0" style="mix-blend-mode: normal"><path d="M273.00138,185.92706c-2.47751,0 -5.39495,0 -5.39495,0v-4.72839l0.52279,-0.73191l-0.52279,-0.66221v-4.79809c0,0 2.91743,0 5.39495,0c0.69856,0 1.34329,0.67893 1.34329,1.32151c0,1.29481 0,6.0192 0,8.32114c0,0.77695 -0.64473,1.27794 -1.34329,1.27794z" data-paper-data="{&quot;index&quot;:null}"/><path d="M254.71084,171.49213c4.95655,0 8.97464,4.01807 8.97464,8.97463c0,4.95656 -4.01808,8.97463 -8.97464,8.97463h-28.86984c-4.95656,0 -8.97464,-4.01807 -8.97464,-8.97463c0,-4.95656 4.01808,-8.97463 8.97464,-8.97463z"/><path d="M212.40809,185.92706v-4.73637l0.5228,-0.72393l-0.5228,-0.6702v-4.7901h18.41397v4.79809l0.5228,0.66221l-0.5228,0.73191v4.72839z"/><path d="M249.20698,185.92706v-4.73637l0.5228,-0.72393l-0.5228,-0.6702v-4.7901h18.41397v4.79809l0.52279,0.66221l-0.52279,0.73191v4.72839z"/><path d="M230.82206,185.92706v-4.73637l0.5228,-0.72393l-0.5228,-0.6702v-4.7901h18.41397v4.79809l0.5228,0.66221l-0.5228,0.73191v4.72839z"/><path d="M205.65533,184.64911c0,-2.30193 0,-7.02632 0,-8.32114c0,-0.64258 0.64473,-1.32151 1.34329,-1.32151c2.47752,0 5.39495,0 5.39495,0v4.79809l0.5228,0.66221l-0.5228,0.73191v4.72839c0,0 -2.91744,0 -5.39495,0c-0.69856,0 -1.34329,-0.50099 -1.34329,-1.27794z"/><path d="M217.55075,170.55861c0.9453,0 1.23116,0.28586 1.23116,1.23116v1.65156c0,0.9453 -0.28586,1.23116 -1.23116,1.23116h-10.61126c-0.9453,0 -1.23116,-0.28586 -1.23116,-1.23116v-1.65156c0,-0.9453 0.28586,-1.23116 1.23116,-1.23116z" data-paper-data="{&quot;index&quot;:null}"/></g></g></svg>