<svg version="1.1" xmlns="http://www.w3.org/2000/svg" xmlns:xlink="http://www.w3.org/1999/xlink" width="34.71672" height="17.83898" viewBox="0,0,34.71672,17.83898"><g transform="translate(-222.64164,-171.0805)"><g data-paper-data="{&quot;isPaintingLayer&quot;:true}" fill="#ececec" fill-rule="nonzero" stroke="#ffffff" stroke-width="1" stroke-linecap="butt" stroke-linejoin="miter" stroke-miterlimit="10" stroke-dasharray="" stroke-dashoffset="0" style="mix-blend-mode: normal"><g><path d="M255.77716,180.3705c-1.99415,0 -4.34239,0 -4.34239,0v-3.80588l0.4208,-0.58912l-0.4208,-0.53301v-3.86198c0,0 2.34824,0 4.34239,0c0.56227,0 1.08121,0.54647 1.08121,1.06368c0,1.0422 0,4.84486 0,6.69768c0,0.62536 -0.51894,1.02861 -1.08121,1.02861z" data-paper-data="{&quot;index&quot;:null}"/><path d="M236.63718,180.3705v-3.8123l0.4208,-0.58269l-0.4208,-0.53945v-3.85555h14.8214v3.86198l0.4208,0.53301l-0.4208,0.58912v3.80588z"/><path d="M231.19064,179.34186c0,-1.85282 0,-5.65549 0,-6.69768c0,-0.51721 0.51894,-1.06368 1.08121,-1.06368c1.99416,0 4.34239,0 4.34239,0v3.86198l0.4208,0.53301l-0.4208,0.58912v3.80588c0,0 -2.34825,0 -4.34239,0c-0.56227,0 -1.08121,-0.40325 -1.08121,-1.02861z"/></g><g><path d="M251.75265,184.39498c-1.99415,0 -4.34239,0 -4.34239,0v-3.80588l0.4208,-0.58912l-0.4208,-0.53301v-3.86198c0,0 2.34824,0 4.34239,0c0.56227,0 1.08121,0.54647 1.08121,1.06368c0,1.0422 0,4.84486 0,6.69768c0,0.62536 -0.51894,1.02861 -1.08121,1.02861z" data-paper-data="{&quot;index&quot;:null}"/><path d="M232.61268,184.39498v-3.8123l0.4208,-0.58269l-0.4208,-0.53945v-3.85555h14.8214v3.86198l0.4208,0.53301l-0.4208,0.58912v3.80588z"/><path d="M227.16613,183.36637c0,-1.85282 0,-5.65549 0,-6.69768c0,-0.51721 0.51894,-1.06368 1.08121,-1.06368c1.99416,0 4.34239,0 4.34239,0v3.86198l0.4208,0.53301l-0.4208,0.58912v3.80588c0,0 -2.34825,0 -4.34239,0c-0.56227,0 -1.08121,-0.40325 -1.08121,-1.02861z"/></g><g><path d="M247.72816,188.41948c-1.99415,0 -4.34239,0 -4.34239,0v-3.80588l0.4208,-0.58912l-0.4208,-0.53301v-3.86198c0,0 2.34824,0 4.34239,0c0.56227,0 1.08121,0.54647 1.08121,1.06368c0,1.0422 0,4.84486 0,6.69768c0,0.62536 -0.51894,1.02861 -1.08121,1.02861z" data-paper-data="{&quot;index&quot;:null}"/><path d="M228.58818,188.41948v-3.8123l0.4208,-0.58269l-0.4208,-0.53945v-3.85555h14.8214v3.86198l0.4208,0.53301l-0.4208,0.58912v3.80588z"/><path d="M223.14164,187.39086c0,-1.85282 0,-5.65549 0,-6.69768c0,-0.51721 0.51894,-1.06368 1.08121,-1.06368c1.99416,0 4.34239,0 4.34239,0v3.86198l0.4208,0.53301l-0.4208,0.58912v3.80588c0,0 -2.34825,0 -4.34239,0c-0.56227,0 -1.08121,-0.40325 -1.08121,-1.02861z"/></g></g></g></svg>