<svg version="1.1" xmlns="http://www.w3.org/2000/svg" xmlns:xlink="http://www.w3.org/1999/xlink" width="35.58334" height="35.58334" viewBox="0,0,35.58334,35.58334"><g transform="translate(-222.20834,-162.20834)"><g data-paper-data="{&quot;isPaintingLayer&quot;:true}" fill-rule="nonzero" stroke-linecap="butt" stroke-linejoin="miter" stroke-miterlimit="10" stroke-dasharray="" stroke-dashoffset="0" style="mix-blend-mode: normal"><path d="M223.45834,180.00001c0,-9.13571 7.40596,-16.54167 16.54167,-16.54167c9.13571,0 16.54167,7.40596 16.54167,16.54167c0,9.13571 -7.40596,16.54167 -16.54167,16.54167c-9.13571,0 -16.54167,-7.40596 -16.54167,-16.54167z" fill="#ff4d4d" stroke="#ffffff" stroke-width="2.5"/><path d="M233.19175,176.25413h13.61631c0.3448,0 0.62433,0.27952 0.62433,0.62433c0,0.01888 -0.00085,0.03773 -0.00256,0.05653l-0.98028,10.78208c-0.11694,1.2862 -1.19527,2.27105 -2.48678,2.27119l-7.9252,0.00084c-1.29171,0.00014 -2.37037,-0.9848 -2.48732,-2.27121l-0.98026,-10.78289c-0.03122,-0.34339 0.22185,-0.64707 0.56524,-0.67829c0.01879,-0.00171 0.03765,-0.00257 0.05653,-0.00257zM236.67027,172.50823l0.69014,-2.07042c0.08497,-0.25494 0.32355,-0.42689 0.59229,-0.42689h4.09464c0.26874,0 0.5073,0.17195 0.59229,0.42689l0.69014,2.07042h4.78652c0.3448,0 0.62433,0.27952 0.62433,0.62433v1.24865c0,0.3448 -0.27952,0.62433 -0.62433,0.62433h-16.23251c-0.3448,0 -0.62433,-0.27952 -0.62433,-0.62433v-1.24865c0,-0.3448 0.27952,-0.62433 0.62433,-0.62433zM237.98647,172.50823h4.0271l-0.41623,-1.24865h-3.19466z" fill="#ffffff" stroke="#000000" stroke-width="0"/><path d="M240.00001,182.14844l1.99192,-1.9919c0.24381,-0.24381 0.63911,-0.24381 0.88292,0l0.09042,0.09042c0.24381,0.24381 0.24381,0.63912 0,0.88294l-1.9919,1.99192c0,0 0.17135,0.17135 0.31961,0.31961c0.33912,0.33912 1.6723,1.6723 1.6723,1.6723c0.24381,0.24381 0.24381,0.63912 0,0.88294l-0.09042,0.09042c-0.24381,0.24381 -0.63911,0.24381 -0.88292,0l-1.99192,-1.9919l-1.99192,1.9919c-0.24381,0.24381 -0.63911,0.24381 -0.88292,0l-0.09042,-0.09042c-0.24381,-0.24381 -0.24381,-0.63912 0,-0.88294l1.9919,-1.9919l-1.9919,-1.99192c-0.24381,-0.24381 -0.24381,-0.63912 0,-0.88294l0.09042,-0.09042c0.24381,-0.24381 0.63911,-0.24381 0.88292,0z" fill="#ff4d4d" stroke="#000000" stroke-width="0"/></g></g></svg>