<svg version="1.1" xmlns="http://www.w3.org/2000/svg" xmlns:xlink="http://www.w3.org/1999/xlink" width="15" height="15" viewBox="0,0,15,15"><g transform="translate(-232.5,-171.99997)"><g data-paper-data="{&quot;isPaintingLayer&quot;:true}" fill="#ffffff" fill-rule="evenodd" stroke="none" stroke-width="1" stroke-linecap="butt" stroke-linejoin="miter" stroke-miterlimit="10" stroke-dasharray="" stroke-dashoffset="0" style="mix-blend-mode: normal"><path d="M244.4337,178.35509l-3.98695,3.99768c-0.23513,0.23585 -0.60023,0.23585 -0.8339,0l-3.98549,-3.99768c-0.37971,-0.38234 -0.10369,-1.01077 0.42352,-1.01077h1.98472l1.1844,-4.70229c0.11684,-0.45412 0.58271,-0.73245 1.0369,-0.61525c0.31983,0.07178 0.55496,0.32081 0.62652,0.61525l1.1844,4.70229h1.94236c0.52429,0 0.80323,0.62843 0.42352,1.01077zM247.5,181.19902v2.41706c0,1.86041 -1.50424,3.38389 -3.35897,3.38389h-8.26599c-1.86934,0 -3.37504,-1.52348 -3.37504,-3.38389v-2.41706c0,-0.61525 0.498,-1.09867 1.09532,-1.09867c0.60023,0 1.09531,0.48341 1.09531,1.09867v2.41706c0,0.64455 0.52721,1.18656 1.1844,1.18656h8.26599c0.64259,0 1.16834,-0.54201 1.16834,-1.18656v-2.41706c0,-0.61525 0.49654,-1.09867 1.09531,-1.09867c0.61338,0 1.09532,0.48341 1.09532,1.09867z"/></g></g></svg>