<svg version="1.1" xmlns="http://www.w3.org/2000/svg" xmlns:xlink="http://www.w3.org/1999/xlink" width="16" height="16" viewBox="0,0,16,16"><g transform="translate(-232,-172)"><g data-paper-data="{&quot;isPaintingLayer&quot;:true}" stroke-linecap="butt" stroke-linejoin="miter" stroke-miterlimit="10" stroke-dasharray="" stroke-dashoffset="0" style="mix-blend-mode: normal"><path d="M234.32948,180c0,-3.13174 2.53878,-5.67052 5.67052,-5.67052c3.13174,0 5.67052,2.53878 5.67052,5.67052c0,3.13174 -2.53878,5.67052 -5.67052,5.67052c-3.13174,0 -5.67052,-2.53878 -5.67052,-5.67052z" fill="#ffffff" fill-rule="nonzero" stroke="#000000" stroke-width="0"/><path d="M239.99905,188c-4.41744,0 -7.99905,-3.58265 -7.99905,-7.99905c0,-4.41829 3.58161,-8.00095 7.99905,-8.00095c4.41934,0 8.00095,3.58265 8.00095,8.00095c0,4.4164 -3.58161,7.99905 -8.00095,7.99905zM239.85326,182.36153c-0.58433,0 -1.04763,0.47454 -1.04763,1.06062c0,0.57096 0.4633,1.04549 1.04763,1.04549c0.58622,0 1.06087,-0.47454 1.06087,-1.04549c0,-0.58608 -0.47465,-1.06062 -1.06087,-1.06062zM239.46181,181.64311h0.69779c0.1891,0 0.36497,-0.11911 0.41035,-0.30249c0.08888,-0.37055 0.34417,-0.62389 0.68455,-0.87912l0.46141,-0.3403c0.72994,-0.54827 1.18189,-1.21564 1.18189,-2.19119c0,-1.21564 -0.98712,-2.39726 -2.95946,-2.39726c-1.77757,0 -2.83654,1.2043 -2.83654,2.62791c0,0.03781 0.00189,0.07562 0.00189,0.11533c0.00946,0.2212 0.18532,0.40269 0.40657,0.41026l0.87366,0.03025c0.24016,0.00945 0.43494,-0.18339 0.43494,-0.42349v-0.00945c0,-0.57096 0.41414,-1.1438 1.11949,-1.1438c0.73183,0 1.08356,0.4613 1.08356,0.93584c0,0.31762 -0.10779,0.61066 -0.43683,0.85454l-0.62026,0.46319c-0.6959,0.5218 -0.9285,1.14191 -0.9285,1.71476c0,0.04348 0.00189,0.08697 0.00189,0.12667c0.00756,0.22876 0.19478,0.40837 0.42359,0.40837z" fill="#000000" fill-rule="evenodd" stroke="none" stroke-width="1"/></g></g></svg>