<svg version="1.1" xmlns="http://www.w3.org/2000/svg" xmlns:xlink="http://www.w3.org/1999/xlink" width="29" height="18" viewBox="0,0,22.22061,13.81082"><g transform="translate(-228.88969,-173.09459)"><g data-paper-data="{&quot;isPaintingLayer&quot;:true}" fill="none" stroke="#4c97ff" stroke-width="1" stroke-miterlimit="10" stroke-dasharray="" stroke-dashoffset="0" style="mix-blend-mode: normal"><g><path d="M235.1903,181.30605v0.26667c0,0.51868 -0.42047,0.93914 -0.93914,0.93914h-4.13709c-0.40006,0 -0.72437,-0.32431 -0.72437,-0.72437v0l1.04466,-0.87794c0.19244,-0.16992 0.52233,-0.1416 0.68728,0.08496l0.13745,0.16992c0.16495,0.22657 0.46735,0.25489 0.68728,0.08496l1.42954,-1.16114c0.19244,-0.16992 0.46735,-0.1416 0.63229,0.02832l1.15462,1.18946z" fill-rule="evenodd" stroke-linecap="round" stroke-linejoin="round"/><path d="M230.21836,182.46008c-0.45766,0 -0.82866,-0.371 -0.82866,-0.82866v-3.31464c0,-0.45766 0.371,-0.82866 0.82866,-0.82866h4.14329c0.45766,0 0.82866,0.371 0.82866,0.82866v3.31463c0,0.45766 -0.371,0.82866 -0.82866,0.82866h-4.14329c-0.45766,0 -0.82866,-0.371 -0.82866,-0.82866v-3.31463c0,-0.45766 0.371,-0.82866 0.82866,-0.82866" data-paper-data="{&quot;index&quot;:null}" fill-rule="evenodd" stroke-linecap="round" stroke-linejoin="miter"/><path d="M242.55576,174.27952l0.00223,2.62881c-0.00223,0.1951 -0.08136,0.38303 -0.22008,0.52175c-0.13823,0.13823 -0.32616,0.21736 -0.52176,0.22008l-2.62831,-0.00272c-0.30168,0 -0.57121,-0.18052 -0.68496,-0.45746c-0.11375,-0.27695 -0.05193,-0.59099 0.16073,-0.80365l0.4723,-0.4723c-0.12611,-0.10139 -0.28684,-0.19782 -0.47724,-0.27942c-0.05662,-0.0225 -0.11375,-0.04451 -0.1731,-0.06429c-0.07171,-0.01731 -0.08136,-0.0324 -0.1731,-0.04946c-0.14837,-0.02967 -0.26953,-0.04203 -0.41073,-0.05415c-0.27176,-0.01013 -0.55118,0.02695 -0.80835,0.10608c-0.25964,0.0816 -0.49209,0.20524 -0.68001,0.33382c-0.18299,0.12858 -0.32888,0.26953 -0.41295,0.35361c-0.04451,0.03956 -0.08902,0.10386 -0.11375,0.13353c-0.0272,0.03215 -0.04204,0.05193 -0.04204,0.05193c-0.15826,0.19288 -0.4451,0.22255 -0.63798,0.06429c-0.1632,-0.13353 -0.21018,-0.3536 -0.12858,-0.53411c0,0 0.00989,-0.02473 0.0272,-0.06182c0.02225,-0.04204 0.03462,-0.08902 0.08408,-0.17804c0.09644,-0.18052 0.22749,-0.40059 0.43521,-0.65281c0.20771,-0.24728 0.48714,-0.51681 0.83604,-0.74702c0.35089,-0.22724 0.77126,-0.41518 1.2213,-0.52893c0.22008,-0.04698 0.46488,-0.08902 0.67507,-0.10138c0.08655,-0.01236 0.25469,-0.01236 0.35608,-0.00989c0.11622,0.00248 0.22749,0.00989 0.34149,0.01954c0.44732,0.04723 0.86275,0.16593 1.20152,0.31182c0.19535,0.0816 0.36597,0.17309 0.50939,0.25717l0.52918,-0.52918c0.21266,-0.21266 0.5267,-0.27447 0.80365,-0.16073c0.27695,0.11374 0.45746,0.38328 0.45746,0.68496" data-paper-data="{&quot;index&quot;:null}" fill-rule="evenodd" stroke-linecap="butt" stroke-linejoin="miter"/><path d="M235.97723,185.72048l-0.00223,-2.62881c0.00223,-0.1951 0.08136,-0.38303 0.22008,-0.52175c0.13823,-0.13823 0.32616,-0.21736 0.52176,-0.22008l2.62831,0.00272c0.30168,0 0.57121,0.18052 0.68496,0.45746c0.11375,0.27695 0.05193,0.59099 -0.16073,0.80365l-0.4723,0.4723c0.12611,0.10139 0.28684,0.19782 0.47724,0.27942c0.05662,0.0225 0.11375,0.04451 0.1731,0.06429c0.07171,0.01731 0.08136,0.0324 0.1731,0.04946c0.14837,0.02967 0.26953,0.04203 0.41073,0.05415c0.27176,0.01013 0.55118,-0.02695 0.80835,-0.10608c0.25964,-0.0816 0.49209,-0.20524 0.68001,-0.33382c0.18299,-0.12858 0.32888,-0.26953 0.41295,-0.35361c0.04451,-0.03956 0.08902,-0.10386 0.11375,-0.13353c0.0272,-0.03215 0.04204,-0.05193 0.04204,-0.05193c0.15826,-0.19288 0.4451,-0.22255 0.63798,-0.06429c0.1632,0.13353 0.21018,0.3536 0.12858,0.53411c0,0 -0.00989,0.02473 -0.0272,0.06182c-0.02225,0.04204 -0.03462,0.08902 -0.08408,0.17804c-0.09644,0.18052 -0.22749,0.40059 -0.43521,0.65281c-0.20771,0.24728 -0.48714,0.51681 -0.83604,0.74702c-0.35089,0.22724 -0.77126,0.41518 -1.2213,0.52893c-0.22008,0.04698 -0.46488,0.08902 -0.67507,0.10138c-0.08655,0.01236 -0.25469,0.01236 -0.35608,0.00989c-0.11622,-0.00248 -0.22749,-0.00989 -0.34149,-0.01954c-0.44732,-0.04723 -0.86275,-0.16593 -1.20152,-0.31182c-0.19535,-0.0816 -0.36597,-0.17309 -0.50939,-0.25717l-0.52918,0.52918c-0.21266,0.21266 -0.5267,0.27447 -0.80365,0.16073c-0.27695,-0.11374 -0.45746,-0.38328 -0.45746,-0.68496" data-paper-data="{&quot;index&quot;:null}" fill-rule="evenodd" stroke-linecap="butt" stroke-linejoin="miter"/><path d="M249.77227,180.42546c0,0.4379 0,1.01403 0,1.35467c0,0.17502 -0.14523,0.28787 -0.30259,0.28787l-1.21526,0.00001v-1.06511l0.11776,-0.16487l-0.11776,-0.14917c0,0 0,-0.16902 0,-0.28918" data-paper-data="{&quot;index&quot;:null}" fill-rule="nonzero" stroke-linecap="butt" stroke-linejoin="miter"/><path d="M248.2611,180.39967c0,0.12016 0,0.28918 0,0.28918l0.11776,0.14917l-0.11776,0.16487v1.06511h-4.1479v-1.06691l0.11776,-0.16307l-0.11776,-0.15097c0,0 0,-0.1544 0,-0.2616" fill-rule="nonzero" stroke-linecap="butt" stroke-linejoin="miter"/><path d="M250.35929,180.39195c-0.55808,0 -1.26683,0 -1.26683,0v-1.06511l0.11776,-0.16487l-0.11776,-0.14917v-1.08081c0,0 0.65718,0 1.21526,0c0.15735,0 0.30259,0.15293 0.30259,0.29768c0,0.29167 0,1.35588 0,1.8744c0,0.17502 -0.14523,0.28787 -0.30259,0.28787z" data-paper-data="{&quot;index&quot;:null}" fill-rule="nonzero" stroke-linecap="butt" stroke-linejoin="miter"/><path d="M244.95123,180.39195v-1.06691l0.11776,-0.16307l-0.11776,-0.15097v-1.07901h4.1479v1.08081l0.11776,0.14917l-0.11776,0.16487v1.06511z" fill-rule="nonzero" stroke-linecap="butt" stroke-linejoin="miter"/><path d="M243.42697,180.10408c0,-0.51853 0,-1.58274 0,-1.8744c0,-0.14475 0.14523,-0.29768 0.30259,-0.29768c0.55808,0 1.21526,0 1.21526,0v1.08081l0.11776,0.14917l-0.11776,0.16487v1.06511c0,0 -0.65718,0 -1.21526,0c-0.15735,0 -0.30259,-0.11285 -0.30259,-0.28787z" fill-rule="nonzero" stroke-linecap="butt" stroke-linejoin="miter"/><path d="M244.10678,180.39967c0,0.12794 0,0.28918 0,0.28918l0.11776,0.14917l-0.11776,0.16487v1.06511c0,0 -0.65718,0 -1.21526,0c-0.15735,0 -0.30259,-0.11285 -0.30259,-0.28787v-0.00001c0,-0.51853 0,-1.58274 0,-1.8744c0,-0.14475 0.14523,-0.29768 0.30259,-0.29768c0.1616,0 0.35729,0 0.51714,0" fill-rule="nonzero" stroke-linecap="butt" stroke-linejoin="miter"/></g></g></g></svg>