<svg version="1.1" xmlns="http://www.w3.org/2000/svg" xmlns:xlink="http://www.w3.org/1999/xlink" width="15.12511"
     height="15.12512" viewBox="0,0,15.12511,15.12512">
    <g transform="translate(-241.06246,-163.81245)">
        <g fill="#000000" fill-rule="nonzero" stroke="#65d1ff" stroke-width="0" stroke-linecap="butt"
           stroke-linejoin="miter" stroke-miterlimit="10" stroke-dasharray="" stroke-dashoffset="0"
           style="mix-blend-mode: normal">
            <g>
                <path d="M252.56152,167.44841c1.90562,1.90562 2.14093,4.84906 0.7059,7.01096c-0.00837,0.01261 1.48034,1.47451 1.48034,1.47451l-1.5739,1.57449c0,0 -1.47913,-1.47791 -1.47998,-1.47734c-2.1614,1.4309 -5.10139,1.19436 -7.00538,-0.70962c-2.17407,-2.17407 -2.17408,-5.69893 0,-7.87301c2.17408,-2.17408 5.69895,-2.17408 7.87302,-0.00001zM246.65675,169.41666c-1.08704,1.08704 -1.08703,2.84946 0.00001,3.9365c1.08704,1.08704 2.84947,1.08705 3.93651,0.00001c1.08704,-1.08704 1.08704,-2.84948 0,-3.93652c-1.08704,-1.08704 -2.84948,-1.08703 -3.93651,0.00001z"/>
                <path d="M249.67779,176.84819c-0.01487,0.00292 -0.00747,2.08937 -0.00747,2.08937l-2.22621,-0.01195c0,0 0.01074,-2.09091 0.00973,-2.09111c-0.62116,-0.12991 2.87384,-0.11388 2.22396,0.0137z"/>
                <path d="M245.55315,176.00746c-0.01258,-0.00844 -1.4827,1.47213 -1.4827,1.47213l-1.56573,-1.58261c0,0 1.4861,-1.4709 1.48553,-1.47176c-0.33443,-0.51131 2.13268,1.96503 1.5629,1.58225z"/>
                <path d="M243.98984,168.29062c0.00837,-0.01261 -1.48033,-1.4745 -1.48033,-1.4745l1.57389,-1.5745c0,0 1.47913,1.47792 1.47999,1.47734c0.49475,-0.32754 -1.9632,2.15868 -1.57355,1.57166z"/>
                <path d="M247.57953,165.90182c0.01487,-0.00292 0.00748,-2.08937 0.00748,-2.08937l2.22622,0.01196c0,0 -0.01075,2.0909 -0.00975,2.09111c0.68904,0.1441 -2.62331,0.06471 -2.22395,-0.01369z"/>
                <path d="M251.6812,166.69885c0.01258,0.00844 1.4827,-1.47213 1.4827,-1.47213l1.56572,1.58262c0,0 -1.48609,1.4709 -1.48553,1.47176c0.18064,0.27619 -1.8263,-1.75921 -1.56291,-1.58226z"/>
                <path d="M243.16552,172.55974c-0.00021,-0.001 -2.09111,0.00975 -2.09111,0.00975l-0.01194,-2.22622c0,0 2.08647,0.00739 2.08938,-0.00747c0.1218,-0.62043 0.14962,2.87391 0.01369,2.22395z"/>
                <path d="M254.08449,170.21009c0.00021,0.001 2.09113,-0.00974 2.09113,-0.00974l0.01194,2.22623c0,0 -2.08646,-0.00738 -2.08937,0.00747c-0.12312,0.62717 -0.14833,-2.86768 -0.0137,-2.22396z"/>
            </g>
            <g>
                <path d="M252.56152,175.30163c-2.17407,2.17407 -5.69894,2.17407 -7.87302,-0.00001c-2.17408,-2.17408 -2.17407,-5.69894 0,-7.87301c1.90399,-1.90398 4.84398,-2.14052 7.00538,-0.70962c0.00085,0.00057 1.47998,-1.47734 1.47998,-1.47734l1.5739,1.57449c0,0 -1.48871,1.4619 -1.48034,1.47451c1.43503,2.1619 1.19972,5.10534 -0.7059,7.01096zM246.65676,173.33337c1.08703,1.08704 2.84947,1.08705 3.93651,0.00001c1.08704,-1.08704 1.08704,-2.84948 0,-3.93652c-1.08704,-1.08704 -2.84947,-1.08703 -3.93651,0.00001c-1.08704,1.08704 -1.08705,2.84946 -0.00001,3.9365z"/>
                <path d="M249.67779,165.90182c0.64988,0.12758 -2.84512,0.14361 -2.22396,0.0137c0.00101,-0.0002 -0.00973,-2.09111 -0.00973,-2.09111l2.22621,-0.01195c0,0 -0.0074,2.08645 0.00747,2.08937z"/>
                <path d="M245.55316,166.74256c0.56978,-0.38278 -1.89733,2.09356 -1.5629,1.58225c0.00057,-0.00086 -1.48553,-1.47176 -1.48553,-1.47176l1.56573,-1.58261c0,0 1.47012,1.48057 1.4827,1.47213z"/>
                <path d="M245.56341,176.03106c-0.00086,-0.00058 -1.47999,1.47734 -1.47999,1.47734l-1.57389,-1.5745c0,0 1.4887,-1.46189 1.48033,-1.4745c-0.38965,-0.58702 2.0683,1.8992 1.57355,1.57166z"/>
                <path d="M247.57953,176.84819c-0.39936,-0.0784 2.91299,-0.15779 2.22395,-0.01369c-0.001,0.00021 0.00975,2.09111 0.00975,2.09111l-2.22622,0.01196c0,0 0.00739,-2.08645 -0.00748,-2.08937z"/>
                <path d="M251.68119,176.05118c-0.26339,0.17695 1.74355,-1.85845 1.56291,-1.58226c-0.00056,0.00086 1.48553,1.47176 1.48553,1.47176l-1.56572,1.58262c0,0 -1.47012,-1.48057 -1.4827,-1.47213z"/>
                <path d="M243.16553,170.19028c0.13593,-0.64996 0.10811,2.84438 -0.01369,2.22395c-0.00291,-0.01486 -2.08938,-0.00747 -2.08938,-0.00747l0.01194,-2.22622c0,0 2.0909,0.01075 2.09111,0.00975z"/>
                <path d="M254.0982,170.31598c0.00291,0.01485 2.08937,0.00747 2.08937,0.00747l-0.01194,2.22623c0,0 -2.09092,-0.01074 -2.09113,-0.00974c-0.13463,0.64372 -0.10942,-2.85113 0.0137,-2.22396z"/>
            </g>
        </g>
    </g>
</svg>