<svg version="1.1" xmlns="http://www.w3.org/2000/svg" xmlns:xlink="http://www.w3.org/1999/xlink" width="20" height="20" viewBox="0,0,15.14126,15.12511"><g transform="translate(-232.42937,-172.43744)"><g data-paper-data="{&quot;isPaintingLayer&quot;:true}" fill="#4c97ff" fill-rule="nonzero" stroke="#65d1ff" stroke-width="0" stroke-linecap="butt" stroke-linejoin="miter" stroke-miterlimit="10" stroke-dasharray="" stroke-dashoffset="0" style="mix-blend-mode: normal"><g><path d="M245.52656,180.00445c0,2.69495 -1.91494,4.94267 -4.45835,5.45665c-0.01484,0.003 0.00412,2.08939 0.00412,2.08939l-2.22625,0.00042c0,0 -0.00086,-2.09094 -0.00187,-2.09114c-2.54014,-0.51654 -4.45177,-2.76269 -4.45177,-5.45533c0,-3.0746 2.49245,-5.56706 5.56706,-5.56706c3.07461,0 5.56707,2.49246 5.56707,5.56706zM239.9595,177.22091c-1.5373,0 -2.78352,1.24623 -2.78352,2.78353c0,1.5373 1.24622,2.78354 2.78352,2.78354c1.5373,0 2.78354,-1.24624 2.78354,-2.78354c0,-1.5373 -1.24624,-2.78353 -2.78354,-2.78353z"/><path d="M236.8408,184.61199c-0.01258,-0.00845 -1.48269,1.47213 -1.48269,1.47213l-1.56572,-1.58262c0,0 1.48609,-1.4709 1.48552,-1.47176c-1.41888,-2.16931 3.7168,3.02926 1.56289,1.58226z"/><path d="M234.51875,181.10095c-0.00293,-0.01486 -2.08938,-0.00748 -2.08938,-0.00748l0.01194,-2.22621c0,0 2.09091,0.01075 2.09112,0.00974c0.53064,-2.53724 0.48617,4.77019 -0.01368,2.22396z"/><path d="M238.86995,174.5389c0.01484,-0.003 -0.00412,-2.08938 -0.00412,-2.08938l2.22625,-0.00043c0,0 0.00086,2.09095 0.00187,2.09115c2.54014,0.51654 -4.76741,0.51265 -2.224,-0.00134z" data-paper-data="{&quot;index&quot;:null}"/><path d="M243.09736,175.38805c0.01258,0.00845 1.4827,-1.47212 1.4827,-1.47212l1.56572,1.58263c0,0 -1.48609,1.47089 -1.48553,1.47174c1.41888,2.16931 -3.03653,-2.57225 -1.56289,-1.58225z" data-paper-data="{&quot;index&quot;:null}"/><path d="M245.48125,178.8991c0.00293,0.01486 2.08938,0.00748 2.08938,0.00748l-0.01195,2.22621c0,0 -2.09091,-0.01074 -2.09112,-0.00973c-0.53064,2.53724 -0.48617,-4.7702 0.01368,-2.22397z" data-paper-data="{&quot;index&quot;:null}"/><path d="M235.26833,176.97472c0.00056,-0.00086 -1.48553,-1.47174 -1.48553,-1.47174l1.56573,-1.58262c0,0 1.47013,1.48058 1.4827,1.47213c2.15391,-1.447 -2.98176,3.75156 -1.56289,1.58225z" data-paper-data="{&quot;index&quot;:null}"/><path d="M244.65067,183.03416c-0.00056,0.00086 1.48554,1.47176 1.48554,1.47176l-1.56574,1.58262c0,0 -1.47013,-1.48057 -1.48269,-1.47212c-2.15391,1.447 2.98176,-3.75157 1.56289,-1.58226z" data-paper-data="{&quot;index&quot;:null}"/></g><g><path d="M243.9365,176.07341c1.90562,1.90562 2.14093,4.84906 0.7059,7.01096c-0.00837,0.01261 1.48034,1.47451 1.48034,1.47451l-1.5739,1.57449c0,0 -1.47913,-1.47791 -1.47998,-1.47734c-2.1614,1.4309 -5.10139,1.19436 -7.00538,-0.70962c-2.17407,-2.17407 -2.17408,-5.69893 0,-7.87301c2.17408,-2.17408 5.69895,-2.17408 7.87302,-0.00001zM238.03174,178.04165c-1.08704,1.08704 -1.08703,2.84946 0.00001,3.9365c1.08704,1.08704 2.84947,1.08705 3.93651,0.00001c1.08704,-1.08704 1.08704,-2.84948 0,-3.93652c-1.08704,-1.08704 -2.84948,-1.08703 -3.93651,0.00001z"/><path d="M241.05277,185.47319c-0.01487,0.00292 -0.00747,2.08937 -0.00747,2.08937l-2.22621,-0.01195c0,0 0.01074,-2.09091 0.00973,-2.09111c-2.53723,-0.53063 4.77018,-0.48616 2.22396,0.0137z"/><path d="M236.92815,184.63245c-0.01258,-0.00844 -1.4827,1.47213 -1.4827,1.47213l-1.56573,-1.58261c0,0 1.4861,-1.4709 1.48553,-1.47176c-1.41888,-2.16932 3.71681,3.02926 1.5629,1.58225z"/><path d="M235.36484,176.91562c0.00837,-0.01261 -1.48033,-1.4745 -1.48033,-1.4745l1.57389,-1.5745c0,0 1.47913,1.47792 1.47999,1.47734c2.1614,-1.4309 -3.00857,3.73357 -1.57355,1.57166z" data-paper-data="{&quot;index&quot;:null}"/><path d="M238.95451,174.52682c0.01487,-0.00292 0.00748,-2.08937 0.00748,-2.08937l2.22622,0.01196c0,0 -0.01075,2.0909 -0.00975,2.09111c2.53723,0.53063 -3.96601,0.3283 -2.22395,-0.01369z" data-paper-data="{&quot;index&quot;:null}"/><path d="M243.12287,175.32385c0.01258,0.00844 1.4827,-1.47213 1.4827,-1.47213l1.56572,1.58262c0,0 -1.48609,1.4709 -1.48553,1.47176c1.41888,2.16932 -3.71681,-3.02927 -1.56291,-1.58226z" data-paper-data="{&quot;index&quot;:null}"/><path d="M234.5405,181.18473c-0.00021,-0.001 -2.09111,0.00975 -2.09111,0.00975l-0.01194,-2.22622c0,0 2.08647,0.00739 2.08938,-0.00747c0.49986,-2.54623 0.54433,4.76118 0.01369,2.22395z" data-paper-data="{&quot;index&quot;:null}"/><path d="M245.45949,178.83508c0.00021,0.001 2.09113,-0.00974 2.09113,-0.00974l0.01194,2.22623c0,0 -2.08646,-0.00738 -2.08937,0.00747c-0.49986,2.54623 -0.54434,-4.76118 -0.0137,-2.22396z" data-paper-data="{&quot;index&quot;:null}"/></g></g></g></svg>