<svg version="1.1" xmlns="http://www.w3.org/2000/svg" width="12.62"
     height="17.3" viewBox="0,0,9.31765,12.7709">
    <g transform="translate(-235.34118,-173.61455)">
        <g data-paper-data="{&quot;isPaintingLayer&quot;:true}" fill="#4c97ff" fill-rule="evenodd" stroke="#000000"
           stroke-width="0" stroke-linecap="butt" stroke-linejoin="miter" stroke-miterlimit="10" stroke-dasharray=""
           stroke-dashoffset="0" style="mix-blend-mode: normal">
            <path d="M237.37547,173.68352c0.68638,0.28671 1.12951,0.94703 1.12951,1.69424l-0.00002,9.24448c0,0.7472 -0.4431,1.40753 -1.1295,1.69425c0,0 -0.31061,0.06896 -0.46316,0.06896c-0.14896,0 -0.4416,-0.06896 -0.4416,-0.06896c-0.6864,-0.28672 -1.1295,-0.94705 -1.1295,-1.69425l-0.00002,-9.24448c0,-0.74721 0.44313,-1.40753 1.12951,-1.69424c0,0 0.29265,-0.06897 0.44161,-0.06897c0.15255,0 0.46317,0.06897 0.46317,0.06897z"
                  data-paper-data="{&quot;index&quot;:null}"/>
            <path d="M243.52931,173.68352c0.68638,0.28671 1.12951,0.94703 1.12951,1.69424l-0.00002,9.24448c0,0.7472 -0.4431,1.40753 -1.1295,1.69425c0,0 -0.31061,0.06896 -0.46316,0.06896c-0.14896,0 -0.4416,-0.06896 -0.4416,-0.06896c-0.6864,-0.28672 -1.1295,-0.94705 -1.1295,-1.69425l-0.00002,-9.24448c0,-0.74721 0.44313,-1.40753 1.12951,-1.69424c0,0 0.29265,-0.06897 0.44161,-0.06897c0.15255,0 0.46317,0.06897 0.46317,0.06897z"
                  data-paper-data="{&quot;index&quot;:null}"/>
        </g>
    </g>
</svg>