<svg version="1.1" xmlns="http://www.w3.org/2000/svg" width="14.74"
     height="17.3" viewBox="0,0,11,13">
    <g transform="translate(-234.49399,-173.54192)">
        <g data-paper-data="{&quot;isPaintingLayer&quot;:true}" fill-rule="evenodd" stroke-linecap="butt"
           stroke-linejoin="miter" stroke-miterlimit="10" stroke-dasharray="" stroke-dashoffset="0"
           style="mix-blend-mode: normal">
            <path d="" data-paper-data="{&quot;index&quot;:null}" fill="none" stroke="#000000" stroke-width="0.5"/>
            <path d="M237.63055,174.08312l6.62226,4.61445c0.33884,0.34668 0.52999,0.81586 0.52999,1.30327c0,0.48569 -0.19115,0.95487 -0.52999,1.30328l-6.62225,4.6127c-0.53,0.53 -1.32065,0.68638 -2.00704,0.39967c-0.6864,-0.28672 -1.1295,-0.94705 -1.1295,-1.69425l-0.00002,-9.24448c0,-0.74721 0.44313,-1.40753 1.12951,-1.69424c0.68639,-0.28673 1.47704,-0.13032 2.00703,0.39966"
                  data-paper-data="{&quot;index&quot;:null}" fill="#4c97ff" stroke="none" stroke-width="1"/>
            <path d="M244.3765,173.6478c0.68638,0.28671 1.12951,0.94703 1.12951,1.69424l-0.00002,9.24448c0,0.7472 -0.4431,1.40753 -1.1295,1.69425c0,0 -0.31061,0.06896 -0.46316,0.06896c-0.14896,0 -0.4416,-0.06896 -0.4416,-0.06896c-0.6864,-0.28672 -1.1295,-0.94705 -1.1295,-1.69425l-0.00002,-9.24448c0,-0.74721 0.44313,-1.40753 1.12951,-1.69424c0,0 0.29265,-0.06897 0.44161,-0.06897c0.15255,0 0.46317,0.06897 0.46317,0.06897z"
                  data-paper-data="{&quot;index&quot;:null}" fill="#4c97ff" stroke="#000000" stroke-width="0"/>
        </g>
    </g>
</svg>