<svg version="1.1" xmlns="http://www.w3.org/2000/svg" xmlns:xlink="http://www.w3.org/1999/xlink" width="34.88889" height="44.51826" viewBox="0,0,34.88889,44.51826"><g transform="translate(-222.55555,-160.80337)"><g data-paper-data="{&quot;isPaintingLayer&quot;:true}" fill-rule="nonzero" stroke-width="1" stroke-linecap="butt" stroke-linejoin="miter" stroke-miterlimit="10" stroke-dasharray="" stroke-dashoffset="0" style="mix-blend-mode: normal"><path d="M223.05556,204.82163v-43.51826h26.33176l7.55713,7.38315v36.13511z" fill="#ffffff" stroke="#ececec"/><path d="M235.91995,170.16101c0.9453,0 1.23116,0.28586 1.23116,1.23116v1.65156c0,0.9453 -0.28586,1.23116 -1.23116,1.23116h-10.11126c-0.9453,0 -1.23116,-0.28586 -1.23116,-1.23116v-1.65156c0,-0.9453 0.28586,-1.23116 1.23116,-1.23116z" data-paper-data="{&quot;index&quot;:null}" fill="#ececec" stroke="#ffffff"/><path d="M247.60798,170.16101c0.9453,0 1.23116,0.28586 1.23116,1.23116v1.65156c0,0.9453 -0.28586,1.23116 -1.23116,1.23116h-9.22237c-0.9453,0 -1.23116,-0.28586 -1.23116,-1.23116v-1.65156c0,-0.9453 0.28586,-1.23116 1.23116,-1.23116z" data-paper-data="{&quot;index&quot;:null}" fill="#ececec" stroke="#ffffff"/><path d="M241.06952,174.30844c0.9453,0 1.23116,0.28586 1.23116,1.23116v1.65156c0,0.9453 -0.28586,1.23116 -1.23116,1.23116h-15.18391c-0.9453,0 -1.23116,-0.28586 -1.23116,-1.23116v-1.65156c0,-0.9453 0.28586,-1.23116 1.23116,-1.23116z" data-paper-data="{&quot;index&quot;:null}" fill="#ececec" stroke="#ffffff"/><path d="M254.14644,174.30844c0.9453,0 1.23116,0.28586 1.23116,1.23116v1.65156c0,0.9453 -0.28586,1.23116 -1.23116,1.23116h-10.61126c-0.9453,0 -1.23116,-0.28586 -1.23116,-1.23116v-1.65156c0,-0.9453 0.28586,-1.23116 1.23116,-1.23116z" data-paper-data="{&quot;index&quot;:null}" fill="#ececec" stroke="#ffffff"/><path d="M254.19132,170.16101c0.9453,0 1.23116,0.28586 1.23116,1.23116v1.65156c0,0.9453 -0.28586,1.23116 -1.23116,1.23116h-4.02793c-0.9453,0 -1.23116,-0.28586 -1.23116,-1.23116v-1.65156c0,-0.9453 0.28586,-1.23116 1.23116,-1.23116z" data-paper-data="{&quot;index&quot;:null}" fill="#ececec" stroke="#ffffff"/><path d="M239.25328,178.41101c0.9453,0 1.23116,0.28586 1.23116,1.23116v1.65156c0,0.9453 -0.28586,1.23116 -1.23116,1.23116h-13.44459c-0.9453,0 -1.23116,-0.28586 -1.23116,-1.23116v-1.65156c0,-0.9453 0.28586,-1.23116 1.23116,-1.23116z" data-paper-data="{&quot;index&quot;:null}" fill="#ececec" stroke="#ffffff"/><path d="M248.35798,178.41101c0.9453,0 1.23116,0.28586 1.23116,1.23116v1.65156c0,0.9453 -0.28586,1.23116 -1.23116,1.23116h-6.63904c-0.9453,0 -1.23116,-0.28586 -1.23116,-1.23116v-1.65156c0,-0.9453 0.28586,-1.23116 1.23116,-1.23116z" data-paper-data="{&quot;index&quot;:null}" fill="#ececec" stroke="#ffffff"/><path d="M232.87507,182.55845c0.9453,0 1.23116,0.28586 1.23116,1.23116v1.65156c0,0.9453 -0.28586,1.23116 -1.23116,1.23116h-6.98946c-0.9453,0 -1.23116,-0.28586 -1.23116,-1.23116v-1.65156c0,-0.9453 0.28586,-1.23116 1.23116,-1.23116z" data-paper-data="{&quot;index&quot;:null}" fill="#ececec" stroke="#ffffff"/><path d="M254.14644,182.47511c0.9453,0 1.23116,0.28586 1.23116,1.23116v1.65156c0,0.9453 -0.28586,1.23116 -1.23116,1.23116h-8.9446c-0.9453,0 -1.23116,-0.28586 -1.23116,-1.23116v-1.65156c0,-0.9453 0.28586,-1.23116 1.23116,-1.23116z" data-paper-data="{&quot;index&quot;:null}" fill="#ececec" stroke="#ffffff"/><path d="M254.19132,178.41101c0.9453,0 1.23116,0.28586 1.23116,1.23116v1.65156c0,0.9453 -0.28586,1.23116 -1.23116,1.23116h-3.27793c-0.9453,0 -1.23116,-0.28586 -1.23116,-1.23116v-1.65156c0,-0.9453 0.28586,-1.23116 1.23116,-1.23116z" data-paper-data="{&quot;index&quot;:null}" fill="#ececec" stroke="#ffffff"/><path d="M242.73618,182.55845c0.9453,0 1.23116,0.28586 1.23116,1.23116v1.65156c0,0.9453 -0.28586,1.23116 -1.23116,1.23116h-7.35057c-0.9453,0 -1.23116,-0.28586 -1.23116,-1.23116v-1.65156c0,-0.9453 0.28586,-1.23116 1.23116,-1.23116z" data-paper-data="{&quot;index&quot;:null}" fill="#ececec" stroke="#ffffff"/><path d="M254.19132,186.66101c0.9453,0 1.23116,0.28586 1.23116,1.23116v1.65156c0,0.9453 -0.28586,1.23116 -1.23116,1.23116h-10.11126c-0.9453,0 -1.23116,-0.28586 -1.23116,-1.23116v-1.65156c0,-0.9453 0.28586,-1.23116 1.23116,-1.23116z" data-paper-data="{&quot;index&quot;:null}" fill="#ececec" stroke="#ffffff"/><path d="M241.61439,186.66101c0.9453,0 1.23116,0.28586 1.23116,1.23116v1.65156c0,0.9453 -0.28586,1.23116 -1.23116,1.23116h-9.22237c-0.9453,0 -1.23116,-0.28586 -1.23116,-1.23116v-1.65156c0,-0.9453 0.28586,-1.23116 1.23116,-1.23116z" data-paper-data="{&quot;index&quot;:null}" fill="#ececec" stroke="#ffffff"/><path d="M254.1144,190.80844c0.9453,0 1.23116,0.28586 1.23116,1.23116v1.65156c0,0.9453 -0.28586,1.23116 -1.23116,1.23116h-15.18391c-0.9453,0 -1.23116,-0.28586 -1.23116,-1.23116v-1.65156c0,-0.9453 0.28586,-1.23116 1.23116,-1.23116z" data-paper-data="{&quot;index&quot;:null}" fill="#ececec" stroke="#ffffff"/><path d="M236.46482,190.80844c0.9453,0 1.23116,0.28586 1.23116,1.23116v1.65156c0,0.9453 -0.28586,1.23116 -1.23116,1.23116h-10.61126c-0.9453,0 -1.23116,-0.28586 -1.23116,-1.23116v-1.65156c0,-0.9453 0.28586,-1.23116 1.23116,-1.23116z" data-paper-data="{&quot;index&quot;:null}" fill="#ececec" stroke="#ffffff"/><path d="M229.83662,186.66101c0.9453,0 1.23116,0.28586 1.23116,1.23116v1.65156c0,0.9453 -0.28586,1.23116 -1.23116,1.23116h-4.02793c-0.9453,0 -1.23116,-0.28586 -1.23116,-1.23116v-1.65156c0,-0.9453 0.28586,-1.23116 1.23116,-1.23116z" data-paper-data="{&quot;index&quot;:null}" fill="#ececec" stroke="#ffffff"/><path d="M254.19132,194.91101c0.9453,0 1.23116,0.28586 1.23116,1.23116v1.65156c0,0.9453 -0.28586,1.23116 -1.23116,1.23116h-13.44459c-0.9453,0 -1.23116,-0.28586 -1.23116,-1.23116v-1.65156c0,-0.9453 0.28586,-1.23116 1.23116,-1.23116z" data-paper-data="{&quot;index&quot;:null}" fill="#ececec" stroke="#ffffff"/><path d="M238.61439,194.91101c0.9453,0 0.89783,0.28586 0.89783,1.23116v1.65156c0,0.9453 -0.06364,1.23116 -1.00894,1.23116h-6.86126c-0.9453,0 -1.23116,-0.28586 -1.23116,-1.23116v-1.65156c0,-0.9453 0.28586,-1.23116 1.23116,-1.23116z" data-paper-data="{&quot;index&quot;:null}" fill="#ececec" stroke="#ffffff"/><path d="M254.1144,199.05845c0.9453,0 1.23116,0.28586 1.23116,1.23116v1.65156c0,0.9453 -0.28586,1.23116 -1.23116,1.23116h-6.98946c-0.9453,0 -1.23116,-0.28586 -1.23116,-1.23116v-1.65156c0,-0.9453 0.28586,-1.23116 1.23116,-1.23116z" data-paper-data="{&quot;index&quot;:null}" fill="#ececec" stroke="#ffffff"/><path d="M234.79816,198.97511c0.9453,0 1.23116,0.28586 1.23116,1.23116v1.65156c0,0.9453 -0.28586,1.23116 -1.23116,1.23116h-8.9446c-0.9453,0 -1.23116,-0.28586 -1.23116,-1.23116v-1.65156c0,-0.9453 0.28586,-1.23116 1.23116,-1.23116z" data-paper-data="{&quot;index&quot;:null}" fill="#ececec" stroke="#ffffff"/><path d="M229.08662,194.91101c0.9453,0 1.23116,0.28586 1.23116,1.23116v1.65156c0,0.9453 -0.28586,1.23116 -1.23116,1.23116h-3.27793c-0.9453,0 -1.23116,-0.28586 -1.23116,-1.23116v-1.65156c0,-0.9453 0.28586,-1.23116 1.23116,-1.23116z" data-paper-data="{&quot;index&quot;:null}" fill="#ececec" stroke="#ffffff"/><path d="M244.6144,199.05845c0.9453,0 1.23116,0.28586 1.23116,1.23116v1.65156c0,0.9453 -0.28586,1.23116 -1.23116,1.23116h-7.35057c-0.9453,0 -1.23116,-0.28586 -1.23116,-1.23116v-1.65156c0,-0.9453 0.28586,-1.23116 1.23116,-1.23116z" data-paper-data="{&quot;index&quot;:null}" fill="#ececec" stroke="#ffffff"/><path d="M256.79043,168.68652h-7.40312v-7.24007l0.15348,0.00111l7.29522,7.07869z" data-paper-data="{&quot;index&quot;:null}" fill="#ececec" stroke="#ececec"/><path d="M246.05722,163.43344c1.23253,0 1.60525,0.37272 1.60525,1.60525v2.15339c0,1.23253 -0.37272,1.60525 -1.60525,1.60525h-19.79753c-1.23253,0 -1.60525,-0.37272 -1.60525,-1.60525v-2.15339c0,-1.23253 0.37272,-1.60525 1.60525,-1.60525z" data-paper-data="{&quot;index&quot;:null}" fill="#ececec" stroke="#ffffff"/></g></g></svg>