<svg version="1.1" xmlns="http://www.w3.org/2000/svg" width="129.36203"
     height="156.46441" viewBox="0,0,129.36203,156.46441">
    <g transform="translate(-175.31899,-129.47359)">
        <g data-paper-data="{&quot;isPaintingLayer&quot;:true}" fill-rule="nonzero" stroke-linejoin="miter"
           stroke-miterlimit="10" stroke-dasharray="" stroke-dashoffset="0" style="mix-blend-mode: normal">
            <path d="M177.31916,135.79582c-0.02283,-2.22749 2.2102,-4.30964 4.43305,-4.32223c3.90328,-0.02211 102.05215,-0.00678 116.71738,-0.00155c2.00542,0.00045 4.21143,2.24023 4.21143,4.54543c0,4.22795 0,136.13589 0,143.5983c0,1.95182 -2.11347,4.32223 -4.43305,4.32223c-7.95247,0 -102.68437,0 -116.71742,0c-2.04897,0 -4.19343,-2.32752 -4.18734,-4.54278c0,0 0.06264,-135.14251 -0.02405,-143.5994z"
                  fill="#ff9b66" stroke="#e6e6e6" stroke-width="0" stroke-linecap="butt"/>
            <path d="M177.31916,135.79582c-0.02283,-2.22749 2.2102,-4.30964 4.43305,-4.32223c3.90328,-0.02211 102.05215,-0.00678 116.71738,-0.00155c2.00542,0.00045 4.21143,2.24023 4.21143,4.54543c0,4.22795 0,136.13589 0,143.5983c0,1.95182 -2.11347,4.32223 -4.43305,4.32223c-7.95247,0 -102.68437,0 -116.71742,0c-2.04897,0 -4.19343,-2.32752 -4.18734,-4.54278c0,0 0.06264,-135.14251 -0.02405,-143.5994z"
                  fill="none" stroke="#e6e6e6" stroke-width="2" stroke-linecap="butt"/>
            <g fill="none" stroke="#ffac7f" stroke-width="1" stroke-linecap="round">
                <path d="M179.18103,267.43798c-2.13853,-0.0845 -1.634,-0.12936 -1.634,-0.12936l-0.03415,-4.74007c0,0 16.74966,-4.93282 22.16815,-5.13057c7.19131,-0.26245 25.42869,-3.41486 39.5,3c14.07131,6.41486 18.55808,4.15794 34.5,19c11.25558,10.47903 -30.11609,-10.29889 -35.5,-4.5c-1.53445,1.65272 1.34489,5.50566 3.36864,8.75396c0.08415,0.13506 -11.97101,0.39018 -12.34603,0.17215c-5.95896,-3.46456 -11.52261,-7.42611 -11.52261,-7.42611c0,0 -8.21547,-7.22144 -16.41881,-8.89739c-7.15202,-1.46116 -13.44899,0.23846 -22.08119,-0.10261z"/>
                <path d="M177.30603,236.93798c0,0 17.38787,-4.8586 21.25,-6.5c3.86213,-1.6414 4.84654,-5.08186 5.5,-8.5c0.65346,-3.41814 0.14224,-5.02207 -2.25,-8.5c-2.25611,-3.28001 -9.16533,-12.88955 -0.5,-8.5c0.87485,0.44316 10.47217,8.2485 11.44303,10.99927c0.97086,2.75077 1.35118,3.08552 0.55697,7.50073c-0.79421,4.41521 -1.75683,7.22298 -4.25,10.5c-1.16847,1.53584 -8.21562,5.41385 -15.37448,7.24162c-8.11598,2.07214 -16.37552,2.00838 -16.37552,2.00838z"/>
                <path d="M297.93104,131.35464c0,0 1.5585,0.42061 2.23033,0.83405c0.76137,0.46854 2.103,1.83262 2.103,1.83262l0.33333,24.66666c0,0 -17.28347,-4.94733 -24.33333,-9.66666c-7.04986,-4.71934 -16,-17.33334 -16,-17.33334z"/>
                <path d="M224.25761,164.02129c-5.60572,4.54001 -12.11935,8.90162 -19,13.46667c-6.88065,4.56504 -8.26118,15.37671 -16.26667,16.93334c-4.16455,0.80978 -7.96349,-1.56145 -11.50519,-4.48669c-0.39177,-0.32359 -0.43984,-8.28544 -0.15467,-8.29852c1.97647,-0.09067 7.51729,2.06853 9.65164,1.39995c1.1221,-0.35149 2.61734,-5.08049 4.76654,-7.76817c3.37484,-4.22038 20.49644,-9.72519 15.50836,-9.44657c-2.58336,0.1443 -17.44591,-4.69526 -25.50132,-4.10005c-0.33983,0.02511 -3.08308,0.0821 -4.02852,-0.68431c-0.95628,-0.7752 -0.11479,-2.37434 -0.45339,-2.42678c-0.13435,-0.0208 -0.0896,-23.51709 0.03075,-23.47157c0.18737,0.07085 7.15667,-0.98279 13.77871,-0.39508c7.70543,0.68386 11.71276,1.31002 9.24416,2.17815c-3.85574,1.35595 -3.39236,1.20361 -10.28334,3.0728c-6.61651,1.79474 -7.46497,3.34688 -8.05686,5.88506c-0.583,2.50007 3.03529,5.01742 7.46981,6.47511c4.43452,1.45769 13.56066,3.28006 23,4.06667c9.43934,0.78662 25.05792,-3.13745 11.8,7.6z"
                      data-paper-data="{&quot;index&quot;:null}"/>
                <path d="M230.37322,211.94478c-2.15106,-7.6482 -14.432,-13.18783 -15.66667,-18.66666c-1.23467,-5.47884 18.23765,-19.625 26.33334,-25c0.94471,-0.62723 4.27107,-10.24833 0.20097,-17.45365c-2.66241,-4.71328 -19.46054,-6.87318 -24.58576,-6.82838c-11.40304,0.09967 5.62905,-12.1705 6.30165,-12.4878c0.2748,-0.12964 26.50358,-0.19232 26.79104,0.0468c5.07926,4.22494 8.50511,15.49247 14.73494,23.44125c5.27522,6.73077 13.59853,10.42165 15.89049,12.28178c4.99866,4.05688 6.06491,6.79648 8.66667,12c2.60176,5.20352 0.12875,6.05863 2,9.33333c1.87125,3.2747 9.44196,-0.00745 11.66666,6.66667c0.15718,0.47155 0.05742,6.85865 -0.14115,7.24991c-2.94877,5.81032 -12.1643,17.71221 -13.19218,22.41675c-1.35619,6.20717 5.19611,29.20547 2,39c-3.19611,9.79453 -21.82335,-9.90951 -28,-11.66666c-3.40599,-0.96894 -11.28481,-6.35573 -20.58443,-8.6705c-7.5649,-1.88297 -16.74653,-0.94381 -19.7489,-0.3295c-15.596,3.19108 7.19625,-5.52928 8.66666,-11.66667c1.47042,-6.13739 0.81772,-12.01846 -1.33333,-19.66666z"/>
                <path d="M229.37322,189.27134c0.18956,-3.41216 1.76621,1.94658 8,-2.33334c6.23379,-4.27992 11.3899,-9.16798 14.33333,-13c2.94344,-3.83202 -3.31395,-9.50761 3.33334,-10c6.64729,-0.49239 9.42916,4.23493 14.66666,8.66666c5.23751,4.43173 9.56805,10.26731 11.33334,13.33334c1.76529,3.06602 -1.54194,4.62332 1.33333,8.66666c2.87526,4.04334 8.62067,2.65127 9.33333,6.33334c0.71266,3.68208 -4.77184,4.16279 -7.66666,10.33334c-2.89482,6.17054 -4.03426,8.45782 -5,16.66666c-0.96574,8.20884 5.69907,29.13509 2,23c-3.8453,-6.37761 -15.33836,-12.68161 -21.66667,-15.66666c-6.32831,-2.98505 -12.44905,-7.23818 -17.33333,-4c-6.59783,4.37423 -0.39625,-10.52713 -0.33334,-16c0.06291,-5.47287 0.42137,-10.38823 -0.33333,-14c-0.7547,-3.61178 -1.98814,-5.98815 -4.33333,-8.33334c-2.34519,-2.34519 -7.85623,-0.2545 -7.66667,-3.66666z"/>
            </g>
            <path d="M177.31916,135.79582c-0.02283,-2.22749 2.2102,-4.30964 4.43305,-4.32223c3.90328,-0.02211 102.05215,-0.00678 116.71738,-0.00155c2.00542,0.00045 4.21143,2.24023 4.21143,4.54543c0,4.22795 0,136.13589 0,143.5983c0,1.95182 -2.11347,4.32223 -4.43305,4.32223c-7.95247,0 -102.68437,0 -116.71742,0c-2.04897,0 -4.19343,-2.32752 -4.18734,-4.54278c0,0 0.06264,-135.14251 -0.02405,-143.5994z"
                  fill="none" stroke="#e6e6e6" stroke-width="3" stroke-linecap="butt"/>
            <g stroke="#ffffff" stroke-width="1" stroke-linecap="butt">
                <path d="M263.92434,240.23044c-2.27642,0.97774 -4.95706,2.1291 -4.95706,2.1291l-1.86604,-4.34461l0.19151,-0.87882l-0.74169,-0.40214l-1.89355,-4.40865c0,0 2.68063,-1.15135 4.95707,-2.12909c0.64186,-0.27569 1.5022,0.0937 1.75579,0.68412c0.51099,1.18972 2.37545,5.53064 3.2839,7.64574c0.30662,0.71389 -0.08807,1.42865 -0.72993,1.70434z"
                      data-paper-data="{&quot;index&quot;:null}" fill="#ffd504"/>
                <path d="M225.09447,256.90815l-1.86919,-4.35193l0.19467,-0.87149l-0.74486,-0.40948l-1.89039,-4.4013l16.91937,-7.267l1.89355,4.40865l0.7417,0.40214l-0.19152,0.87882l1.86603,4.34461z"
                      fill="#4c97ff"/>
                <path d="M242.01384,249.64115l-1.86918,-4.35193l0.19467,-0.87149l-0.74486,-0.40948l-1.89039,-4.40131l16.91937,-7.26699l1.89354,4.40865l0.7417,0.40214l-0.19152,0.87883l1.86604,4.34461z"
                      fill="#ff8c19"/>
                <path d="M218.38547,258.39887c-0.90845,-2.11509 -2.77291,-6.45602 -3.2839,-7.64575c-0.25359,-0.59043 0.07087,-1.46868 0.71273,-1.74437c2.27643,-0.97774 4.95706,-2.12909 4.95706,-2.12909l1.89355,4.40865l0.7417,0.40214l-0.19152,0.87883l1.86603,4.3446c0,0 -2.68064,1.15136 -4.95706,2.1291c-0.64186,0.27569 -1.43197,0.0698 -1.73859,-0.64409z"
                      fill="#ffd504"/>
                <path d="M223.75463,240.75757c0.86857,-0.37306 1.24404,-0.22322 1.6171,0.64536l0.65178,1.51751c0.37306,0.86857 0.22322,1.24404 -0.64536,1.61711l-9.74998,4.18768c-0.86857,0.37306 -1.24404,0.22321 -1.6171,-0.64536l-0.65179,-1.51751c-0.37306,-0.86857 -0.22321,-1.24404 0.64536,-1.6171z"
                      data-paper-data="{&quot;index&quot;:null}" fill="#ececec"/>
            </g>
            <g stroke="#ffffff" stroke-width="1" stroke-linecap="butt">
                <path d="M291.56052,203.83742c-3.51896,0.79274 -7.66278,1.72624 -7.66278,1.72624l-1.51296,-6.71602l0.50836,-1.20686l-0.95444,-0.7733l-1.53526,-6.81502c0,0 4.14381,-0.9335 7.66278,-1.72624c0.99221,-0.22352 2.1252,0.53451 2.33081,1.44721c0.4143,1.8391 1.92598,8.54944 2.66254,11.81903c0.2486,1.10355 -0.50684,2.02143 -1.49905,2.24495z"
                      data-paper-data="{&quot;index&quot;:null}" fill="#ffd504"/>
                <path d="M260.96255,189.18708c7.04009,-1.58596 14.03291,2.83547 15.61887,9.87558c1.58597,7.04011 -2.83549,14.0329 -9.87559,15.61886l-41.00561,9.23757c-7.04011,1.58597 -14.03291,-2.83547 -15.61887,-9.87558c-1.58597,-7.04011 2.83549,-14.0329 9.87559,-15.61886z"
                      fill="#ffac19"/>
                <path d="M205.49614,223.22567l-1.51551,-6.72736l0.51093,-1.19552l-0.95701,-0.78464l-1.5327,-6.80367l26.1545,-5.89197l1.53526,6.81502l0.95445,0.7733l-0.50837,1.20686l1.51296,6.71602z"
                      fill="#ffac19"/>
                <path d="M257.76387,211.45098l-1.51551,-6.72736l0.51093,-1.19552l-0.95701,-0.78464l-1.5327,-6.80367l26.1545,-5.89197l1.53526,6.81502l0.95444,0.7733l-0.50836,1.20686l1.51296,6.71602z"
                      fill="#ffac19"/>
                <path d="M231.65063,217.33367l-1.51551,-6.72736l0.51093,-1.19552l-0.95701,-0.78464l-1.5327,-6.80367l26.1545,-5.89197l1.53526,6.81502l0.95445,0.7733l-0.50837,1.20686l1.51296,6.71602z"
                      fill="#15bc8c"/>
                <path d="M195.49586,223.57122c-0.73656,-3.26957 -2.24823,-9.97992 -2.66254,-11.81903c-0.20561,-0.9127 0.4929,-2.08332 1.48511,-2.30684c3.51897,-0.79274 7.66278,-1.72624 7.66278,-1.72624l1.53526,6.81502l0.95445,0.7733l-0.50837,1.20686l1.51296,6.71602c0,0 -4.14382,0.9335 -7.66278,1.72624c-0.99221,0.22352 -2.06826,-0.28177 -2.31686,-1.38532z"
                      fill="#ffd504"/>
                <path d="M207.88308,199.75138c1.34267,-0.30247 1.84016,0.01209 2.14263,1.35475l0.52845,2.34581c0.30247,1.34267 -0.01209,1.84016 -1.35475,2.14263l-15.07183,3.39532c-1.34267,0.30247 -1.84016,-0.01209 -2.14263,-1.35475l-0.52845,-2.34581c-0.30247,-1.34267 0.01209,-1.84016 1.35475,-2.14263z"
                      data-paper-data="{&quot;index&quot;:null}" fill="#eeeeee"/>
            </g>
            <g stroke="#ffffff" stroke-width="1" stroke-linecap="butt">
                <path d="M275.12058,186.24506c-3.00162,-0.28233 -6.53623,-0.6148 -6.53623,-0.6148l0.53884,-5.72867l0.71679,-0.82717l-0.55792,-0.86187l0.54678,-5.81311c0,0 3.5346,0.33247 6.53623,0.6148c0.84634,0.07961 1.55009,0.97563 1.47686,1.75415c-0.14755,1.56872 -0.68594,7.29254 -0.94827,10.08145c-0.08854,0.94131 -0.92675,1.47481 -1.77309,1.3952z"
                      data-paper-data="{&quot;index&quot;:null}" fill="#ffd504"/>
                <path d="M246.31082,183.53522l0.53975,-5.73833l0.71589,-0.8175l-0.55702,-0.87156l0.54587,-5.80343l22.30939,2.09843l-0.54678,5.81311l0.55793,0.86188l-0.7168,0.82717l-0.53884,5.72867z"
                      fill="#4bc0e6"/>
                <path d="M238.25824,181.21578c0.26232,-2.7889 0.80071,-8.51272 0.94827,-10.08145c0.07323,-0.77852 0.93172,-1.5276 1.77806,-1.44799c3.00163,0.28233 6.53623,0.6148 6.53623,0.6148l-0.54678,5.81311l0.55793,0.86188l-0.7168,0.82717l-0.53884,5.72867c0,0 -3.53462,-0.33247 -6.53623,-0.6148c-0.84634,-0.07961 -1.57037,-0.76005 -1.48183,-1.70136z"
                      fill="#ffd504"/>
                <path d="M254.2572,165.49833c1.14528,0.10773 1.45903,0.48663 1.35131,1.63191l-0.18821,2.00094c-0.10773,1.14528 -0.48663,1.45903 -1.63191,1.35131l-12.85604,-1.20924c-1.14528,-0.10773 -1.45903,-0.48663 -1.35131,-1.63191l0.18821,-2.00094c0.10773,-1.14528 0.48663,-1.45903 1.63191,-1.35131z"
                      data-paper-data="{&quot;index&quot;:null}" fill="#ececec"/>
            </g>
            <g stroke="#ffffff" stroke-width="1" stroke-linecap="butt">
                <path d="M228.70823,170.97815c-2.6116,1.5063 -5.68695,3.28008 -5.68695,3.28008l-2.87482,-4.98432l0.10609,-1.08938l-0.9537,-0.38019l-2.91719,-5.05778c0,0 3.07533,-1.77376 5.68695,-3.28008c0.73638,-0.42471 1.82878,-0.10104 2.21946,0.57633c0.78724,1.36488 3.65962,6.34499 5.05917,8.77153c0.47237,0.819 0.09735,1.73909 -0.63902,2.16381z"
                      data-paper-data="{&quot;index&quot;:null}" fill="#ffd504"/>
                <path d="M203.64186,185.43575l-2.87967,-4.99273l0.11095,-1.08097l-0.95857,-0.38862l-2.91234,-5.04937l19.41063,-11.19551l2.9172,5.05779l0.95371,0.3802l-0.1061,1.08938l2.87482,4.98432z"
                      fill="#15bc8c"/>
                <path d="M195.73189,188.20274c-1.39956,-2.42652 -4.27194,-7.40662 -5.05917,-8.77152c-0.39069,-0.67737 -0.12384,-1.78503 0.61253,-2.20974c2.61161,-1.50631 5.68695,-3.28008 5.68695,-3.28008l2.9172,5.05778l0.95371,0.3802l-0.10609,1.08938l2.87482,4.98432c0,0 -3.07536,1.77378 -5.68695,3.28008c-0.73637,0.42471 -1.72059,0.2886 -2.19297,-0.53039z"
                      fill="#ffd504"/>
                <path d="M199.68806,166.12664c0.99647,-0.57473 1.47159,-0.4472 2.04633,0.54926l1.00413,1.74095c0.57473,0.99647 0.4472,1.47159 -0.54926,2.04633l-11.18559,6.45155c-0.99647,0.57473 -1.47159,0.4472 -2.04633,-0.54926l-1.00413,-1.74095c-0.57473,-0.99647 -0.4472,-1.4716 0.54926,-2.04633z"
                      data-paper-data="{&quot;index&quot;:null}" fill="#ececec"/>
            </g>
        </g>
    </g>
</svg>