<svg version="1.1" xmlns="http://www.w3.org/2000/svg" width="182.93648"
     height="30.98779" viewBox="0,0,182.93648,30.98779">
    <style>
        text{
        font-family: sans-serif;
        }
    </style>
    <g transform="translate(-147.79106,-164.52537)">
        <g fill-rule="nonzero" stroke-linecap="butt" stroke-linejoin="miter" stroke-miterlimit="10" stroke-dasharray=""
           stroke-dashoffset="0" style="mix-blend-mode: normal">
            <g>
                <path d="M166.09623,192.48398c-0.47924,0.00457 -0.94523,0.00654 -1.39453,0.00284c-0.24624,0.00357 -1.35662,0.03105 -5.08241,0.13228c-0.02635,0.00192 -0.0558,0.00037 -0.08541,0.00212c-0.64319,0.00259 -1.73805,0.04727 -3.2584,0.13542c-1.17591,0.15201 -1.48207,0.17216 -1.83546,0.15374c-1.56075,-0.08129 -2.93567,-0.7697 -3.86587,-1.93365c-0.46511,-0.58197 -0.73637,-1.29493 -0.7831,-2.03555c-0.03285,-0.56602 -0.1015,-1.70478 0.61117,-2.78972c0.37114,-0.57452 1.05556,-1.36893 2.20631,-1.8569l0.07463,-1.43314c0.0305,-0.58569 0.04273,-1.8285 -0.0744,-4.42977c-1.19213,-0.54438 -2.05352,-1.51773 -2.41171,-2.76671c-0.00552,-0.01997 -0.01105,-0.03995 -0.0164,-0.06319c-0.14873,-0.54582 -0.20879,-1.09357 -0.18084,-1.63017c0.08673,-1.66545 1.34939,-4.42778 5.531,-4.21001c0.3861,0.02011 0.83232,0.08273 1.42993,0.19916c0.04563,0.00566 0.0849,0.00769 0.12416,0.00974c0.45426,-0.02883 1.25535,-0.03961 3.20667,0.03906l0.0458,0.00239c1.7407,0.09065 2.76232,0.88535 3.31546,1.54081c0.72632,0.85805 1.09165,1.96961 1.03133,3.12788c-0.08503,1.63273 -0.95066,3.00826 -2.31879,3.70145c-0.26288,0.13395 -0.54094,0.24414 -0.83089,0.33074c0.00287,0.19701 0.00883,0.39745 0.01428,0.6077c0.00195,0.08868 0.00062,0.1772 -0.00399,0.26553l-0.0714,1.37097c-0.00078,0.14104 0.00624,0.69916 0.10849,2.83048c0.03616,-0.0014 0.07232,-0.0028 0.10849,-0.00419c-0.01644,-0.12553 -0.03319,-0.24451 -0.04996,-0.36349c-0.12774,-0.88593 0.07962,-1.78066 0.57069,-2.51624c0.38071,-0.6954 0.97243,-1.28467 1.73197,-1.69458c0.80017,-0.43406 1.70654,-0.63947 2.61288,-0.59227c0.76565,0.03988 1.49799,0.27815 2.12315,0.68472c0.69165,0.45269 1.56814,1.32511 1.91982,2.95107c0.1742,0.81288 0.19632,1.58504 0.07015,2.30682c-0.01493,0.09764 -0.05309,0.51562 0.03184,1.53055c0.0762,0.17458 0.14555,0.35535 0.21401,0.55249c0.06571,0.18714 0.11817,0.37689 0.15082,0.56888c0.31783,1.77182 -0.42688,3.4719 -1.93712,4.43656c0,0 -1.87382,0.8276 -3.03241,0.83616z"
                      fill="#28a5d9" stroke="#ffffff" stroke-width="4"/>
                <path d="M184.69078,186.84213c-1.20937,2.8734 -4.1749,4.50374 -8.8122,4.84621c-0.21077,0.01527 -0.41776,0.02089 -0.62424,0.0167c-0.28876,0.37866 -0.65657,0.70072 -1.08266,0.94428c-1.11571,0.63415 -2.14432,0.9185 -3.14228,0.86655c-2.05153,-0.10685 -4.18039,-1.75316 -4.00521,-5.11678c0.01193,-0.22904 0.03724,-0.52628 0.08163,-0.93736c0.01902,-0.17618 0.03599,-0.31309 0.04455,-0.41435c-0.04233,-0.25811 -0.05832,-0.51814 -0.04468,-0.7799l0.08248,-1.58364c0.01347,-0.25849 0.05309,-0.51562 0.11892,-0.77137c0.01468,-0.21905 0.03729,-0.46394 0.06763,-0.73139c-0.06352,-0.29203 -0.10505,-0.62883 -0.08561,-1.00185c0.00886,-0.17014 0.0308,-0.3396 0.0624,-0.50529c0.17001,-0.87042 0.60522,-1.7303 1.29952,-2.39953c-0.19287,-0.64326 -0.27591,-1.31687 -0.24029,-2.00073l0.08691,-1.66872c0.03527,-0.6773 0.21339,-1.51449 0.98047,-3.58086c0.32188,-0.88875 0.42488,-1.16555 0.55958,-1.421c0.71991,-1.41265 1.72935,-2.08516 2.45467,-2.40498c1.18501,-0.51572 2.44044,-0.74561 3.7296,-0.67847c0.59551,0.03102 1.1616,0.12284 1.6986,0.26892c0.25065,-0.15099 0.5163,-0.27496 0.7971,-0.37516c0.35794,-0.13228 0.7364,-0.21756 1.15208,-0.26153c1.03987,-0.12301 2.11804,0.15297 3.03693,0.77826c0.96626,0.66056 2.04568,1.98321 1.76968,4.57385c-0.04677,0.45688 -0.11788,1.0667 -0.21836,1.862c-0.0043,0.01946 -0.00532,0.03909 -0.00961,0.05855c-0.08251,0.57642 -0.20276,1.43631 -0.36366,2.57296c0.00317,0.44308 -0.03239,0.93664 -0.10198,1.51701c-0.02795,0.22165 -0.07554,0.44227 -0.14566,0.65514c-0.01565,0.0484 -0.03112,0.09352 -0.04642,0.13539c0.41223,0.58907 0.68379,1.17079 0.86436,1.67234c0.17276,0.39942 0.31302,0.8562 0.42853,1.41013c0.04488,0.20904 0.06998,0.42031 0.07525,0.63385c0.05164,1.84327 -0.46803,3.82077 -0.46803,3.82077z"
                      fill="#28a5d9" stroke="#ffffff" stroke-width="4"/>
                <path d="M169.12863,191.64779c-0.85178,0.54291 -1.87383,0.82762 -3.03243,0.83618c-0.47924,0.00457 -0.94523,0.00654 -1.39453,0.00284c-0.24624,0.00357 -1.35662,0.03105 -5.08241,0.13228c-0.02635,0.00192 -0.0558,0.00037 -0.08541,0.00212c-0.64319,0.00259 -1.73805,0.04727 -3.2584,0.13542c-1.17591,0.15201 -1.48207,0.17216 -1.83546,0.15374c-1.56075,-0.08129 -2.93567,-0.7697 -3.86587,-1.93365c-0.46511,-0.58197 -0.73637,-1.29493 -0.7831,-2.03555c-0.03285,-0.56602 -0.1015,-1.70478 0.61117,-2.78972c0.37114,-0.57452 1.05556,-1.36893 2.20631,-1.8569l0.07463,-1.43314c0.0305,-0.58569 0.04273,-1.8285 -0.0744,-4.42977c-1.19213,-0.54438 -2.05352,-1.51773 -2.41171,-2.76671c-0.00552,-0.01997 -0.01105,-0.03995 -0.0164,-0.06319c-0.14873,-0.54582 -0.20879,-1.09357 -0.18084,-1.63017c0.08673,-1.66545 1.34939,-4.42778 5.531,-4.21001c0.3861,0.02011 0.83232,0.08273 1.42993,0.19916c0.04563,0.00566 0.0849,0.00769 0.12416,0.00974c0.45426,-0.02883 1.25535,-0.03961 3.20667,0.03906l0.0458,0.00239c1.7407,0.09065 2.76232,0.88535 3.31546,1.54081c0.72632,0.85805 1.09165,1.96961 1.03133,3.12788c-0.08503,1.63273 -0.95066,3.00826 -2.31879,3.70145c-0.26288,0.13395 -0.54094,0.24414 -0.83089,0.33074c0.00287,0.19701 0.00883,0.39745 0.01428,0.6077c0.00195,0.08868 0.00062,0.1772 -0.00399,0.26553l-0.0714,1.37097c-0.00078,0.14104 0.00624,0.69916 0.10849,2.83048c0.03616,-0.0014 0.07232,-0.0028 0.10849,-0.00419c-0.01644,-0.12553 -0.03319,-0.24451 -0.04996,-0.36349c-0.12774,-0.88593 0.07962,-1.78066 0.57069,-2.51624c0.38071,-0.6954 0.97243,-1.28467 1.73197,-1.69458c0.80017,-0.43406 1.70654,-0.63947 2.61288,-0.59227c0.76565,0.03988 1.49799,0.27815 2.12315,0.68472c0.69165,0.45269 1.56814,1.32511 1.91982,2.95107c0.1742,0.81288 0.19632,1.58504 0.07015,2.30682c-0.01493,0.09764 -0.05309,0.51562 0.03184,1.53055c0.0762,0.17458 0.14555,0.35535 0.21401,0.55249c0.06571,0.18714 0.11817,0.37689 0.15082,0.56888c0.31783,1.77182 -0.42688,3.4719 -1.93712,4.43656z"
                      fill="#f9b238" stroke="#000000" stroke-width="0"/>
                <path d="M184.69078,186.84213c-1.20937,2.8734 -4.1749,4.50374 -8.8122,4.84621c-0.21077,0.01527 -0.41776,0.02089 -0.62424,0.0167c-0.28876,0.37866 -0.65657,0.70072 -1.08266,0.94428c-1.11571,0.63415 -2.14432,0.9185 -3.14228,0.86655c-2.05153,-0.10685 -4.18039,-1.75316 -4.00521,-5.11678c0.01193,-0.22904 0.03724,-0.52628 0.08163,-0.93736c0.01902,-0.17618 0.03599,-0.31309 0.04455,-0.41435c-0.04233,-0.25811 -0.05832,-0.51814 -0.04468,-0.7799l0.08248,-1.58364c0.01347,-0.25849 0.05309,-0.51562 0.11892,-0.77137c0.01468,-0.21905 0.03729,-0.46394 0.06763,-0.73139c-0.06352,-0.29203 -0.10505,-0.62883 -0.08561,-1.00185c0.00886,-0.17014 0.0308,-0.3396 0.0624,-0.50529c0.17001,-0.87042 0.60522,-1.7303 1.29952,-2.39953c-0.19287,-0.64326 -0.27591,-1.31687 -0.24029,-2.00073l0.08691,-1.66872c0.03527,-0.6773 0.21339,-1.51449 0.98047,-3.58086c0.32188,-0.88875 0.42488,-1.16555 0.55958,-1.421c0.71991,-1.41265 1.72935,-2.08516 2.45467,-2.40498c1.18501,-0.51572 2.44044,-0.74561 3.7296,-0.67847c0.59551,0.03102 1.1616,0.12284 1.6986,0.26892c0.25065,-0.15099 0.5163,-0.27496 0.7971,-0.37516c0.35794,-0.13228 0.7364,-0.21756 1.15208,-0.26153c1.03987,-0.12301 2.11804,0.15297 3.03693,0.77826c0.96626,0.66056 2.04568,1.98321 1.76968,4.57385c-0.04677,0.45688 -0.11788,1.0667 -0.21836,1.862c-0.0043,0.01946 -0.00532,0.03909 -0.00961,0.05855c-0.08251,0.57642 -0.20276,1.43631 -0.36366,2.57296c0.00317,0.44308 -0.03239,0.93664 -0.10198,1.51701c-0.02795,0.22165 -0.07554,0.44227 -0.14566,0.65514c-0.01565,0.0484 -0.03112,0.09352 -0.04642,0.13539c0.41223,0.58907 0.68379,1.17079 0.86436,1.67234c0.17276,0.39942 0.31302,0.8562 0.42853,1.41013c0.04488,0.20904 0.06998,0.42031 0.07525,0.63385c0.05164,1.84327 -0.08002,2.92237 -0.46803,3.8208z"
                      fill="#f9b238" stroke="none" stroke-width="1"/>
                <path d="M181.55632,183.12373c0.03389,1.19502 -0.0257,1.96095 -0.1775,2.2995c-0.63885,1.54449 -2.56123,2.43487 -5.76651,2.67213c-1.08186,0.07851 -2.12957,-0.48592 -3.14445,-1.69331c-0.00899,0.17276 0.0023,0.69272 0.03454,1.56055c0.02461,0.63614 -0.01218,1.15357 -0.10972,1.55237c-0.49599,0.28192 -0.88747,0.41572 -1.17541,0.40074c-0.44172,-0.02301 -0.63946,-0.46606 -0.59445,-1.32985c0.00799,-0.15346 0.03022,-0.39738 0.06699,-0.73208c0.03644,-0.33439 0.05852,-0.56914 0.06552,-0.70363c0.01699,-0.32622 0.00018,-0.55773 -0.05041,-0.69522l0.08244,-1.58299c0.00199,-0.03828 0.01373,-0.08097 0.03554,-0.12808c0.02146,-0.04679 0.04302,-0.08897 0.06434,-0.12658c-0.00532,-0.2693 0.02565,-0.6814 0.09324,-1.23596c0.05628,-0.34352 0.06774,-0.56374 0.03447,-0.66193c-0.08623,-0.19642 -0.12768,-0.31407 -0.12566,-0.35268c0.10422,-0.53329 0.51216,-0.7814 1.22185,-0.74444c0.46037,0.02398 0.72999,0.20173 0.80921,0.53263c-0.01598,0.30691 -0.0012,0.76011 0.04473,1.35863c0.07952,0.69674 0.40771,1.40674 0.98591,2.12912c0.63043,0.82188 1.25407,1.21986 1.87155,1.19428c0.69468,-0.04026 1.39391,-0.16756 2.09764,-0.38125c0.97735,-0.29557 1.57386,-0.66837 1.7899,-1.11873c0.15182,-0.33855 0.23819,-0.69922 0.25819,-1.08334c0.06094,-1.17007 -0.32515,-2.06583 -1.15866,-2.68635c-0.37115,-0.26934 -1.07034,-0.50786 -2.09857,-0.71561c-0.59088,-0.10722 -0.95368,-0.16515 -1.08749,-0.17213c-0.92207,-0.02867 -1.76548,-0.37082 -2.52957,-1.02644c-0.76443,-0.65531 -1.1253,-1.38638 -1.08334,-2.19228l0.08691,-1.66905c0.01897,-0.36418 0.27449,-1.20718 0.76687,-2.52832c0.2244,-0.62349 0.34756,-0.95336 0.3692,-0.99095c0.19342,-0.39379 0.42793,-0.65095 0.70358,-0.77144c0.66909,-0.29193 1.36831,-0.41922 2.09764,-0.38125c1.41972,0.07395 2.43547,0.70395 3.04726,1.89002c0.05459,0.06059 0.14596,0.15197 0.27444,0.27414c0.03295,-0.26732 0.09306,-0.6779 0.17962,-1.23147c-0.00632,-0.25033 -0.01313,-0.49117 -0.02012,-0.72252c0.01397,-0.2683 0.15729,-0.44358 0.43127,-0.52578c0.07856,-0.03429 0.18574,-0.05758 0.32123,-0.06988c0.19374,-0.0283 0.3977,0.03055 0.61159,0.17588c0.21321,0.14595 0.28349,0.55381 0.21025,1.2229c-0.04128,0.42108 -0.11056,1.01393 -0.2081,1.77823c-0.09059,0.63046 -0.22709,1.59482 -0.41055,2.89367c0.02229,0.30892 0.0003,0.73133 -0.06596,1.26626c-0.11518,0.35949 -0.41262,0.52674 -0.89196,0.50178c-0.24965,-0.013 -0.48567,-0.09255 -0.70903,-0.2387c-0.09621,-0.37017 -0.14543,-0.52726 -0.14843,-0.46968c0.06494,-0.51598 -0.00446,-1.21219 -0.2088,-2.08866c-0.1884,-0.45208 -0.44787,-1.09552 -0.7797,-1.93071c-0.33186,-0.83488 -0.80317,-1.29742 -1.414,-1.38698c-0.76461,-0.09756 -1.27676,0.1356 -1.53709,0.69916c-0.08957,0.24566 -0.21458,0.60497 -0.37337,1.07735c-0.26734,0.69802 -0.44677,1.37175 -0.53832,2.02087c-0.03032,0.21037 -0.05411,0.29573 -0.07108,0.25614c0.03758,0.38714 0.08468,0.77411 0.14159,1.16191c0.07088,0.48466 0.28714,0.86174 0.64817,1.13023c0.36131,0.26915 1.06762,0.45949 2.12016,0.57205c2.58208,0.28901 4.13709,1.27421 4.66532,2.95594c0.08753,0.15876 0.16993,0.42258 0.24715,0.79176z"
                      fill="#ffffff" stroke="none" stroke-width="1"/>
                <path d="M167.51858,187.84574c0.0589,0.33051 -0.05046,0.58464 -0.32874,0.76209c-0.2783,0.17808 -0.65345,0.26912 -1.12547,0.27341c-0.47202,0.00429 -0.92808,0.00482 -1.37078,0.00078c-0.28854,0.00302 -2.01302,0.04804 -5.17241,0.13449c-0.73144,0.00259 -1.92663,0.05221 -3.58617,0.1482c-0.77503,0.10235 -1.21027,0.15022 -1.30613,0.14523c-0.53759,-0.028 -0.95069,-0.22275 -1.23927,-0.58423c-0.02062,-0.34754 -0.01014,-0.54875 0.03147,-0.60433c0.25198,-0.40978 0.69607,-0.62746 1.33254,-0.65205c0.51995,-0.01131 1.0304,-0.02278 1.53141,-0.03572c0.01897,0.00098 0.03896,-0.01734 0.0606,-0.05491c0.07924,-0.78427 0.03033,-1.69103 -0.14703,-2.72029l0.08394,-1.61179c0.05196,-0.99763 0.02371,-2.67269 -0.08468,-5.02613c-0.00863,-0.57755 -0.02274,-1.41525 -0.04203,-2.5127c-0.11121,-0.08224 -0.26348,-0.11903 -0.45586,-0.11036c-0.25167,0.02561 -0.40527,0.0268 -0.46187,0.00482c-0.28587,-0.05459 -0.58161,-0.10904 -0.88645,-0.1646c-0.37968,-0.09916 -0.61027,-0.28933 -0.69141,-0.57079c-0.04867,-0.18069 -0.06871,-0.35003 -0.0605,-0.50774c0.03087,-0.59255 0.61201,-0.8592 1.74445,-0.80022c0.23003,0.01198 0.59219,0.06956 1.08749,0.17213c0.40175,0.04061 0.67072,0.05463 0.80589,0.04198c0.40579,-0.03661 1.37662,-0.02443 2.91317,0.03624c0.36418,0.01897 0.61474,0.10879 0.75041,0.2694c0.13597,0.16095 0.19749,0.3656 0.18454,0.61428c-0.01799,0.34519 -0.13564,0.56939 -0.35263,0.67291c-0.29658,0.15746 -0.75178,0.21052 -1.36461,0.15925c-0.76695,-0.05897 -1.2566,-0.07495 -1.46931,-0.04765c-0.00961,0.92142 0.00549,2.29459 0.04525,4.12017l-0.07332,1.40762c-0.01597,0.30658 0.0324,1.5952 0.14508,3.86652c0.03065,0.5203 0.06452,1.33769 0.10288,2.45322c0.03477,0.0694 0.08146,0.10529 0.13872,0.10827c0.68489,0.14164 1.31659,0.20834 1.89414,0.19971c0.71269,-0.02062 1.4352,-0.04073 2.16785,-0.06c0.46135,0.00501 0.92323,0.00018 1.38597,-0.01477c0.61613,-0.00597 1.22513,-0.07038 1.828,-0.19318c0.011,-0.21104 -0.01879,-0.55873 -0.08967,-1.04373c-0.08423,-0.60019 -0.13397,-0.94924 -0.14728,-1.0464c0.02863,-0.19077 0.05328,-0.4687 0.07228,-0.83352c-0.05061,-0.50232 -0.10517,-0.94774 -0.16108,-1.33583c0.01865,0.00097 0.05908,-0.0258 0.11967,-0.08037c-0.01098,-0.17348 0.09811,-0.32166 0.3263,-0.44462c0.22687,-0.12271 0.46563,-0.17785 0.71527,-0.16485c0.13415,0.00699 0.24783,0.04178 0.34068,0.10468c0.16807,0.10522 0.29018,0.3373 0.3679,0.69699c0.07737,0.36034 0.08993,0.67333 0.03766,0.93996c-0.11253,0.68641 -0.09045,1.73678 0.06664,3.14884c0.10645,0.16073 0.21865,0.40674 0.33648,0.73965z"
                      fill="#ffffff" stroke="none" stroke-width="1"/>
            </g>
            <g stroke-width="1">
                <path d="M297.46749,165.02537c8.27026,0 14.97465,6.70436 14.97465,14.97463c0,8.27027 -6.70437,14.97463 -14.97465,14.97463h-48.17081c-8.27027,0 -14.97465,-6.70436 -14.97465,-14.97463c0,-8.27027 6.70437,-14.97463 14.97465,-14.97463z"
                      fill="#ffac19" stroke="#ffffff"/>
                <path d="M226.88318,189.11082v-7.90288l0.87232,-1.20791l-0.87232,-1.11826v-7.99253h30.72465v8.00586l0.87232,1.10493l-0.87232,1.22123v7.88956z"
                      fill="#ffac19" stroke="#ffffff"/>
                <path d="M288.28402,189.11082v-7.90288l0.87232,-1.20791l-0.87232,-1.11826v-7.99253h30.72465v8.00586l0.8723,1.10493l-0.8723,1.22123v7.88956z"
                      fill="#ffac19" stroke="#ffffff"/>
                <path d="M257.60784,189.11082v-7.90288l0.87232,-1.20791l-0.87232,-1.11826v-7.99253h30.72465v8.00586l0.87232,1.10493l-0.87232,1.22123v7.88956z"
                      fill="#4c97ff" stroke="#ffffff"/>
                <text transform="translate(230.21568,182.03839) scale(0.15624,0.15624)" font-size="40"
                      xml:space="preserve" fill="#ffffff" fill-rule="nonzero" stroke="none" stroke-width="1"
                      stroke-linecap="butt" stroke-linejoin="miter" stroke-miterlimit="10" stroke-dasharray=""
                      stroke-dashoffset="0" font-family="Sans Serif" font-weight="normal" text-anchor="start"
                      style="mix-blend-mode: normal"><tspan x="7" dy="0">Imagine</tspan></text>
                <text transform="translate(260.2496,182.03839) scale(0.15624,0.15624)" font-size="40"
                      xml:space="preserve" fill="#ffffff" fill-rule="nonzero" stroke="none" stroke-width="1"
                      stroke-linecap="butt" stroke-linejoin="miter" stroke-miterlimit="10" stroke-dasharray=""
                      stroke-dashoffset="0" font-family="Sans Serif" font-weight="normal" text-anchor="start"
                      style="mix-blend-mode: normal"><tspan x="5" dy="0">Program</tspan></text>
                <text transform="translate(294.03777,182.03839) scale(0.15624,0.15624)" font-size="40"
                      xml:space="preserve" fill="#ffffff" fill-rule="nonzero" stroke="none" stroke-width="1"
                      stroke-linecap="butt" stroke-linejoin="miter" stroke-miterlimit="10" stroke-dasharray=""
                      stroke-dashoffset="0" font-family="Sans Serif" font-weight="normal" text-anchor="start"
                      style="mix-blend-mode: normal"><tspan x="2" dy="0">Export</tspan></text>
                <path d="M327.98619,189.11082c-4.13385,0 -9.00175,0 -9.00175,0v-7.88956l0.8723,-1.22123l-0.8723,-1.10493v-8.00586c0,0 4.86788,0 9.00175,0c1.16558,0 2.24135,1.13283 2.24135,2.20501c0,2.16046 0,10.04334 0,13.88425c0,1.29638 -1.07577,2.13231 -2.24135,2.13231z"
                      data-paper-data="{&quot;index&quot;:null}" fill="#ffd504" stroke="#ffffff"/>
                <path d="M215.61586,186.9785c0,-3.84089 0,-11.72377 0,-13.88425c0,-1.07218 1.07577,-2.20501 2.24135,-2.20501c4.13387,0 9.00175,0 9.00175,0v8.00586l0.87232,1.10493l-0.87232,1.22123v7.88956c0,0 -4.8679,0 -9.00175,0c-1.16558,0 -2.24135,-0.83593 -2.24135,-2.13231z"
                      fill="#ffd504" stroke="#ffffff"/>
            </g>
        </g>
    </g>
</svg>